<svg width="67" height="65" viewBox="0 0 67 65" fill="none" xmlns="http://www.w3.org/2000/svg">
<path fill-rule="evenodd" clip-rule="evenodd" d="M33.5262 0.5C15.5163 0.5 0.957031 15.1666 0.957031 33.3112C0.957031 47.8151 10.2857 60.0924 23.2269 64.4377C24.8449 64.7644 25.4376 63.7317 25.4376 62.8631C25.4376 62.1024 25.3843 59.4951 25.3843 56.7784C16.3243 58.7344 14.4376 52.8671 14.4376 52.8671C12.9817 49.0645 10.8243 48.0871 10.8243 48.0871C7.859 46.0771 11.0403 46.0771 11.0403 46.0771C14.3296 46.2945 16.0556 49.4451 16.0556 49.4451C18.967 54.4424 23.6583 53.0304 25.5456 52.1611C25.8149 50.0425 26.6783 48.5758 27.5949 47.7611C20.369 47.0005 12.7663 44.1758 12.7663 31.5725C12.7663 27.9872 14.0596 25.0539 16.109 22.7726C15.7856 21.9579 14.653 18.5893 16.433 14.0806C16.433 14.0806 19.183 13.2113 25.3836 17.4486C28.0383 16.7304 30.7761 16.365 33.5262 16.3619C36.2762 16.3619 39.0795 16.7426 41.6682 17.4486C47.8695 13.2113 50.6195 14.0806 50.6195 14.0806C52.3995 18.5893 51.2662 21.9579 50.9428 22.7726C53.0462 25.0539 54.2862 27.9872 54.2862 31.5725C54.2862 44.1758 46.6835 46.9458 39.4035 47.7611C40.5902 48.7931 41.6142 50.7485 41.6142 53.8451C41.6142 58.2451 41.5609 61.7764 41.5609 62.8624C41.5609 63.7317 42.1542 64.7644 43.7715 64.4384C56.7128 60.0917 66.0414 47.8151 66.0414 33.3112C66.0948 15.1666 51.4822 0.5 33.5262 0.5Z" fill="black" fill-opacity="0.8"/>
</svg>
