<svg width="64" height="64" viewBox="0 0 64 64" fill="none" xmlns="http://www.w3.org/2000/svg">
<g clip-path="url(#clip0_610_1772)">
<path d="M0.78414 39.3746C0.64174 38.7675 1.36493 38.3852 1.80582 38.8261L25.1738 62.194C25.6147 62.6349 25.2323 63.3581 24.6253 63.2157C12.8328 60.4494 3.55046 51.167 0.78414 39.3746ZM0.00108839 30.009C-0.0102036 30.1903 0.0579666 30.3673 0.186414 30.4958L33.5041 63.8134C33.6325 63.9419 33.8095 64.0102 33.9909 63.9988C35.5071 63.9043 36.9949 63.7044 38.4468 63.4062C38.9361 63.3057 39.1061 62.7046 38.7528 62.3514L1.64849 25.247C1.2953 24.8938 0.694137 25.0638 0.593655 25.5531C0.295469 27.005 0.0955298 28.4927 0.00108839 30.009ZM2.69487 19.0114C2.58832 19.2507 2.64259 19.5302 2.82777 19.7154L44.2844 61.1721C44.4696 61.3573 44.7492 61.4116 44.9884 61.305C46.1315 60.7958 47.2394 60.2217 48.3071 59.5872C48.6605 59.3773 48.715 58.8918 48.4244 58.6012L5.3987 15.5755C5.10808 15.2849 4.62257 15.3394 4.41263 15.6927C3.77818 16.7605 3.20403 17.8683 2.69487 19.0114ZM8.10145 11.5674C7.86458 11.3305 7.84993 10.9506 8.07309 10.7007C13.9388 4.13396 22.4712 0 31.9691 0C49.6592 0 63.9999 14.3407 63.9999 32.0308C63.9999 41.5287 59.8659 50.0611 53.2991 55.9268C53.0493 56.1499 52.6694 56.1353 52.4325 55.8984L8.10145 11.5674Z" fill="black" fill-opacity="0.8"/>
</g>
<defs>
<clipPath id="clip0_610_1772">
<rect width="64" height="64" fill="white"/>
</clipPath>
</defs>
</svg>
