<svg width="64" height="64" viewBox="0 0 64 64" fill="none" xmlns="http://www.w3.org/2000/svg">
<g clip-path="url(#clip0_610_3977)">
<path fill-rule="evenodd" clip-rule="evenodd" d="M40.2551 0.108476L4.88132 2.76662C2.0187 2.9711 0.996338 4.91359 0.996338 7.16279V46.0126C0.996338 47.7507 1.60976 49.2842 3.1433 51.2267L11.4245 62.0638C12.7535 63.8018 14.0826 64.2107 16.6385 64.0062L57.7376 61.5526C61.2136 61.3481 62.236 59.7123 62.236 56.9519V13.1947C62.236 11.7634 61.7248 11.3545 59.9868 10.1276C59.8845 10.0254 59.7823 10.0254 59.68 9.92317L48.434 2.05097C45.7759 0.00623968 44.6513 -0.198233 40.2551 0.108476ZM17.5586 12.4791C14.1848 12.6836 13.4692 12.7858 11.5267 11.15L6.72158 7.36726C6.2104 6.85608 6.41487 6.24266 7.74394 6.14043L41.7887 3.68675C44.6513 3.48228 46.0826 4.40241 47.2072 5.32253L53.0347 9.51423C53.3414 9.61646 53.9548 10.3321 53.1369 10.3321L17.9676 12.4791H17.5586ZM13.6737 56.543V19.4312C13.6737 17.7954 14.1848 17.0797 15.6161 16.9775L55.9995 14.626C57.3286 14.5238 57.942 15.3417 57.942 16.9775V53.7826C57.942 55.4184 57.6353 56.7475 55.4884 56.8497L16.843 59.0989C14.696 59.3034 13.6737 58.4855 13.6737 56.543ZM51.8078 21.4759C52.0123 22.6005 51.8078 23.7251 50.6832 23.8273L48.843 24.2363V51.6356C47.2072 52.5558 45.7759 52.9647 44.5491 52.9647C42.6066 52.9647 42.0954 52.3513 40.5618 50.511L28.2935 31.2906V49.7954L32.1784 50.7155C32.1784 50.7155 32.1784 52.9647 29.1114 52.9647L20.5235 53.4759C20.319 52.9647 20.5235 51.7379 21.3414 51.5334L23.5906 50.92V26.3832L20.5235 26.0765C20.319 24.9519 20.9324 23.3161 22.6705 23.2139L31.8717 22.6005L44.5491 42.0254V24.8497L41.2775 24.4407C41.073 23.1117 41.9931 22.0893 43.22 21.9871L51.8078 21.4759Z" fill="black" fill-opacity="0.8"/>
</g>
<defs>
<clipPath id="clip0_610_3977">
<rect width="61.2396" height="64" fill="white" transform="translate(1)"/>
</clipPath>
</defs>
</svg>
