<svg xmlns="http://www.w3.org/2000/svg" xmlns:xlink="http://www.w3.org/1999/xlink" version="1.1" width="256" height="256" viewBox="0 0 256 256" xml:space="preserve">
<g style="stroke: none; stroke-width: 0; stroke-dasharray: none; stroke-linecap: butt; stroke-linejoin: miter; stroke-miterlimit: 10; fill: none; fill-rule: nonzero; opacity: 1;" transform="translate(1.4065934065934016 1.4065934065934016) scale(2.81 2.81)">
	<path d="M 37.45 20.357 c 2.904 -3.023 6.945 -4.895 11.41 -4.895 c 5.953 0 11.112 3.307 13.89 8.235 c 2.466 -1.102 5.137 -1.671 7.838 -1.67 C 81.302 22.027 90 30.791 90 41.605 s -8.698 19.578 -19.413 19.578 c -1.31 0 -2.586 -0.132 -3.836 -0.38 c -2.431 4.332 -7.077 7.276 -12.369 7.276 c -2.154 0.004 -4.281 -0.484 -6.217 -1.429 c -2.464 5.787 -8.202 9.855 -14.882 9.855 c -6.978 0 -12.898 -4.398 -15.18 -10.583 c -1.016 0.214 -2.051 0.322 -3.089 0.321 C 6.713 66.244 0 59.431 0 51.064 c 0 -5.622 3.023 -10.517 7.507 -13.162 c -0.951 -2.192 -1.441 -4.556 -1.439 -6.945 c 0 -9.657 7.838 -17.462 17.495 -17.462 c 5.655 0 10.715 2.695 13.89 6.879" style="stroke: none; stroke-width: 1; stroke-dasharray: none; stroke-linecap: butt; stroke-linejoin: miter; stroke-miterlimit: 10; fill: rgb(0,0,0); fill-rule: evenodd; opacity: 1;" transform=" matrix(1 0 0 1 0 0) " stroke-linecap="round"/>
	<path d="M 13.109 46.152 c -0.057 0.147 0.02 0.178 0.038 0.204 c 0.169 0.122 0.341 0.211 0.513 0.311 c 0.919 0.486 1.786 0.628 2.692 0.628 c 1.845 0 2.993 -0.982 2.993 -2.563 v -0.031 c 0 -1.462 -1.296 -1.994 -2.507 -2.375 l -0.158 -0.051 c -0.916 -0.297 -1.706 -0.556 -1.706 -1.157 v -0.031 c 0 -0.516 0.463 -0.896 1.177 -0.896 c 0.794 0 1.74 0.264 2.345 0.599 c 0 0 0.179 0.116 0.244 -0.057 c 0.035 -0.094 0.344 -0.919 0.377 -1.012 c 0.035 -0.097 -0.026 -0.17 -0.09 -0.208 c -0.694 -0.423 -1.654 -0.711 -2.646 -0.711 l -0.184 0.001 c -1.69 0 -2.871 1.022 -2.871 2.484 v 0.031 c 0 1.541 1.303 2.044 2.52 2.391 l 0.196 0.061 c 0.886 0.273 1.654 0.509 1.654 1.131 v 0.031 c 0 0.572 -0.499 0.999 -1.3 0.999 c -0.311 0 -1.303 -0.005 -2.378 -0.685 c -0.13 -0.076 -0.204 -0.13 -0.304 -0.191 c -0.053 -0.032 -0.185 -0.09 -0.243 0.083 l -0.364 1.012 M 40.127 46.15 c -0.057 0.147 0.02 0.178 0.039 0.204 c 0.168 0.122 0.341 0.211 0.513 0.311 c 0.919 0.486 1.786 0.628 2.692 0.628 c 1.845 0 2.993 -0.982 2.993 -2.563 v -0.031 c 0 -1.462 -1.293 -1.994 -2.507 -2.375 l -0.158 -0.051 c -0.916 -0.297 -1.706 -0.556 -1.706 -1.157 v -0.031 c 0 -0.516 0.463 -0.896 1.177 -0.896 c 0.794 0 1.736 0.264 2.345 0.599 c 0 0 0.179 0.116 0.245 -0.057 c 0.035 -0.094 0.344 -0.919 0.374 -1.012 c 0.035 -0.097 -0.026 -0.17 -0.089 -0.208 c -0.694 -0.423 -1.654 -0.711 -2.646 -0.711 L 43.213 38.8 c -1.69 0 -2.871 1.022 -2.871 2.484 v 0.031 c 0 1.541 1.303 2.044 2.52 2.391 l 0.195 0.061 c 0.89 0.273 1.654 0.509 1.654 1.131 v 0.031 c 0 0.572 -0.499 0.999 -1.3 0.999 c -0.312 0 -1.306 -0.005 -2.378 -0.685 c -0.13 -0.076 -0.206 -0.128 -0.305 -0.191 c -0.033 -0.021 -0.189 -0.082 -0.242 0.083 l -0.364 1.012 M 58.577 43.051 c 0 0.893 -0.167 1.597 -0.493 2.097 c -0.325 0.493 -0.817 0.734 -1.501 0.734 c -0.685 0 -1.174 -0.239 -1.495 -0.731 c -0.323 -0.496 -0.486 -1.204 -0.486 -2.097 s 0.164 -1.594 0.486 -2.087 c 0.32 -0.489 0.807 -0.724 1.495 -0.724 c 0.688 0 1.177 0.237 1.501 0.724 c 0.328 0.493 0.493 1.194 0.493 2.087 M 60.118 41.398 c -0.152 -0.513 -0.387 -0.962 -0.701 -1.339 c -0.315 -0.377 -0.711 -0.681 -1.184 -0.9 c -0.47 -0.22 -1.025 -0.331 -1.654 -0.331 s -1.181 0.111 -1.654 0.331 c -0.47 0.22 -0.87 0.523 -1.184 0.9 c -0.314 0.377 -0.549 0.827 -0.701 1.339 c -0.15 0.509 -0.227 1.065 -0.227 1.657 c 0 0.592 0.076 1.148 0.227 1.657 c 0.151 0.513 0.387 0.962 0.701 1.339 c 0.315 0.377 0.714 0.678 1.184 0.893 c 0.473 0.214 1.029 0.323 1.654 0.323 s 1.181 -0.109 1.65 -0.323 c 0.47 -0.214 0.87 -0.516 1.184 -0.893 c 0.314 -0.377 0.549 -0.827 0.701 -1.339 c 0.15 -0.509 0.227 -1.065 0.227 -1.657 c 0 -0.589 -0.076 -1.148 -0.227 -1.657 M 72.781 45.631 c -0.051 -0.15 -0.197 -0.093 -0.197 -0.093 c -0.224 0.086 -0.463 0.165 -0.718 0.205 c -0.257 0.04 -0.542 0.061 -0.843 0.061 c -0.744 0 -1.339 -0.222 -1.763 -0.661 c -0.427 -0.44 -0.665 -1.148 -0.661 -2.107 c 0.002 -0.873 0.213 -1.528 0.592 -2.031 c 0.374 -0.496 0.949 -0.754 1.71 -0.754 c 0.635 0 1.121 0.074 1.63 0.233 c 0 0 0.121 0.053 0.179 -0.106 c 0.135 -0.374 0.235 -0.642 0.38 -1.052 c 0.041 -0.117 -0.06 -0.167 -0.096 -0.181 c -0.2 -0.078 -0.671 -0.206 -1.029 -0.26 c -0.334 -0.051 -0.721 -0.077 -1.157 -0.077 c -0.648 0 -1.224 0.111 -1.716 0.33 c -0.493 0.219 -0.909 0.523 -1.24 0.9 s -0.582 0.827 -0.751 1.339 c -0.167 0.509 -0.251 1.068 -0.251 1.66 c 0 1.277 0.344 2.312 1.025 3.069 c 0.681 0.761 1.706 1.144 3.043 1.144 c 0.79 0 1.601 -0.16 2.183 -0.39 c 0 0 0.111 -0.054 0.063 -0.183 l -0.38 -1.045 M 75.478 42.192 c 0.074 -0.496 0.21 -0.909 0.423 -1.23 c 0.32 -0.489 0.807 -0.757 1.492 -0.757 c 0.685 0 1.138 0.269 1.462 0.757 c 0.215 0.322 0.309 0.751 0.344 1.23 l -3.737 -0.001 L 75.478 42.192 z M 80.67 41.1 c -0.131 -0.493 -0.456 -0.992 -0.668 -1.22 c -0.337 -0.36 -0.665 -0.615 -0.992 -0.754 c -0.473 -0.201 -0.981 -0.304 -1.495 -0.303 c -0.651 0 -1.243 0.11 -1.723 0.334 c -0.48 0.226 -0.883 0.532 -1.2 0.916 c -0.317 0.384 -0.556 0.837 -0.708 1.356 c -0.152 0.513 -0.229 1.075 -0.229 1.663 c 0 0.602 0.08 1.161 0.236 1.667 c 0.158 0.509 0.413 0.956 0.757 1.326 c 0.344 0.374 0.784 0.665 1.313 0.87 c 0.526 0.203 1.164 0.309 1.895 0.307 c 1.508 -0.005 2.302 -0.341 2.626 -0.523 c 0.058 -0.032 0.112 -0.088 0.044 -0.249 l -0.341 -0.956 c -0.052 -0.143 -0.196 -0.091 -0.196 -0.091 c -0.374 0.14 -0.903 0.39 -2.143 0.387 c -0.81 -0.001 -1.409 -0.24 -1.786 -0.615 c -0.384 -0.384 -0.575 -0.943 -0.605 -1.736 l 5.225 0.004 c 0 0 0.138 -0.001 0.152 -0.136 c 0.006 -0.056 0.179 -1.072 -0.156 -2.246 L 80.67 41.1 z M 33.709 42.192 c 0.074 -0.496 0.21 -0.909 0.423 -1.23 c 0.32 -0.489 0.807 -0.757 1.492 -0.757 s 1.138 0.269 1.462 0.757 c 0.215 0.322 0.309 0.751 0.344 1.23 l -3.737 -0.001 L 33.709 42.192 z M 38.901 41.1 c -0.131 -0.493 -0.456 -0.992 -0.668 -1.22 c -0.337 -0.36 -0.665 -0.615 -0.992 -0.754 c -0.473 -0.201 -0.981 -0.304 -1.495 -0.303 c -0.652 0 -1.243 0.11 -1.723 0.334 c -0.48 0.226 -0.883 0.532 -1.2 0.916 c -0.316 0.384 -0.556 0.837 -0.708 1.356 c -0.152 0.513 -0.228 1.075 -0.228 1.663 c 0 0.602 0.079 1.161 0.237 1.667 c 0.158 0.509 0.413 0.956 0.754 1.326 c 0.344 0.374 0.784 0.665 1.313 0.87 c 0.526 0.203 1.161 0.309 1.895 0.307 c 1.508 -0.005 2.302 -0.341 2.626 -0.523 c 0.058 -0.032 0.112 -0.088 0.044 -0.249 l -0.341 -0.956 c -0.053 -0.143 -0.197 -0.091 -0.197 -0.091 c -0.374 0.14 -0.903 0.39 -2.143 0.387 c -0.807 -0.001 -1.409 -0.24 -1.786 -0.615 c -0.384 -0.384 -0.575 -0.943 -0.605 -1.736 l 5.225 0.004 c 0 0 0.138 -0.001 0.152 -0.136 c 0.006 -0.056 0.179 -1.072 -0.156 -2.246 L 38.901 41.1 z M 22.432 45.598 c -0.205 -0.163 -0.233 -0.203 -0.301 -0.31 c -0.104 -0.16 -0.156 -0.387 -0.156 -0.678 c 0 -0.456 0.152 -0.787 0.466 -1.009 c -0.003 0.001 0.45 -0.39 1.515 -0.377 c 0.474 0.008 0.947 0.049 1.415 0.121 v 2.371 h 0.001 c 0 0 -0.661 0.143 -1.409 0.188 c -1.062 0.064 -1.531 -0.306 -1.528 -0.305 L 22.432 45.598 z M 24.508 41.927 c -0.212 -0.016 -0.486 -0.023 -0.814 -0.023 c -0.446 0 -0.88 0.056 -1.283 0.165 c -0.407 0.11 -0.774 0.28 -1.088 0.506 c -0.315 0.225 -0.574 0.519 -0.757 0.86 c -0.185 0.344 -0.279 0.747 -0.279 1.204 c 0 0.463 0.08 0.863 0.239 1.191 c 0.156 0.325 0.39 0.606 0.681 0.817 c 0.29 0.211 0.648 0.367 1.062 0.46 c 0.41 0.094 0.873 0.141 1.382 0.141 c 0.536 0 1.068 -0.045 1.584 -0.132 c 0.439 -0.076 0.877 -0.161 1.313 -0.255 c 0.174 -0.04 0.367 -0.093 0.367 -0.093 c 0.129 -0.033 0.119 -0.171 0.119 -0.171 l -0.003 -4.762 c 0 -1.045 -0.279 -1.822 -0.83 -2.302 c -0.549 -0.48 -1.353 -0.721 -2.394 -0.721 c -0.39 0 -1.022 0.053 -1.399 0.129 c 0 0 -1.138 0.221 -1.607 0.589 c 0 0 -0.103 0.063 -0.047 0.207 l 0.37 0.992 c 0.046 0.129 0.171 0.085 0.171 0.085 s 0.039 -0.016 0.086 -0.043 c 1.002 -0.546 2.272 -0.529 2.272 -0.529 c 0.562 0 0.999 0.114 1.29 0.337 c 0.285 0.219 0.43 0.549 0.43 1.243 v 0.221 c -0.446 -0.065 -0.86 -0.102 -0.86 -0.102 L 24.508 41.927 z M 66.509 39.238 c 0.031 -0.072 -0.002 -0.155 -0.074 -0.186 c -0.001 -0.001 -0.003 -0.001 -0.004 -0.002 c -0.089 -0.034 -0.532 -0.127 -0.873 -0.148 c -0.655 -0.041 -1.019 0.069 -1.346 0.216 c -0.323 0.146 -0.681 0.38 -0.88 0.652 l -0.001 -0.635 c 0 -0.087 -0.062 -0.158 -0.15 -0.158 h -1.336 c -0.087 0 -0.149 0.07 -0.149 0.158 v 7.772 c 0 0.087 0.071 0.158 0.158 0.158 h 1.369 c 0.087 0 0.158 -0.071 0.158 -0.158 v -3.902 c 0 -0.523 0.058 -1.042 0.172 -1.369 c 0.113 -0.324 0.267 -0.582 0.456 -0.767 c 0.181 -0.179 0.402 -0.312 0.645 -0.387 c 0.228 -0.065 0.464 -0.099 0.701 -0.099 c 0.273 0 0.572 0.07 0.572 0.07 c 0.101 0.011 0.156 -0.05 0.19 -0.141 c 0.09 -0.238 0.344 -0.952 0.394 -1.095" style="stroke: none; stroke-width: 1; stroke-dasharray: none; stroke-linecap: butt; stroke-linejoin: miter; stroke-miterlimit: 10; fill: rgb(255,255,254); fill-rule: evenodd; opacity: 1;" transform=" matrix(1 0 0 1 0 0) " stroke-linecap="round"/>
	<path d="M 53.721 35.651 c -0.169 -0.051 -0.341 -0.092 -0.516 -0.122 c -0.234 -0.039 -0.472 -0.057 -0.709 -0.055 c -0.944 0 -1.687 0.267 -2.209 0.793 c -0.519 0.523 -0.871 1.319 -1.048 2.366 l -0.064 0.354 h -1.184 c 0 0 -0.145 -0.006 -0.175 0.152 l -0.194 1.085 c -0.014 0.104 0.031 0.169 0.17 0.168 h 1.153 l -1.17 6.529 c -0.092 0.526 -0.196 0.958 -0.313 1.286 c -0.114 0.323 -0.226 0.566 -0.364 0.742 c -0.133 0.17 -0.26 0.296 -0.478 0.369 c -0.18 0.061 -0.387 0.088 -0.614 0.088 c -0.126 0 -0.294 -0.021 -0.418 -0.046 c -0.124 -0.024 -0.189 -0.052 -0.281 -0.091 c 0 0 -0.135 -0.052 -0.189 0.084 c -0.043 0.111 -0.351 0.956 -0.387 1.06 c -0.037 0.103 0.015 0.185 0.08 0.208 c 0.153 0.055 0.268 0.09 0.477 0.139 c 0.29 0.068 0.535 0.073 0.764 0.073 c 0.48 0 0.918 -0.067 1.281 -0.198 c 0.365 -0.132 0.683 -0.362 0.964 -0.673 c 0.304 -0.336 0.495 -0.687 0.678 -1.167 c 0.181 -0.475 0.335 -1.065 0.458 -1.753 l 1.175 -6.65 h 1.718 c 0 0 0.145 0.005 0.175 -0.152 l 0.194 -1.085 c 0.014 -0.104 -0.031 -0.169 -0.17 -0.168 h -1.668 c 0.008 -0.038 0.084 -0.624 0.275 -1.177 c 0.082 -0.236 0.235 -0.426 0.366 -0.557 c 0.122 -0.124 0.272 -0.218 0.437 -0.272 c 0.181 -0.056 0.37 -0.083 0.56 -0.081 c 0.157 0 0.311 0.019 0.429 0.043 c 0.162 0.034 0.225 0.053 0.267 0.065 c 0.17 0.052 0.193 0.002 0.226 -0.081 l 0.399 -1.095 C 53.858 35.716 53.758 35.666 53.721 35.651 M 30.415 46.934 c 0 0.087 -0.062 0.158 -0.149 0.158 h -1.383 c -0.088 0 -0.15 -0.071 -0.15 -0.158 V 35.8 c 0 -0.087 0.062 -0.157 0.15 -0.157 h 1.383 c 0.087 0 0.149 0.07 0.149 0.157 V 46.934" style="stroke: none; stroke-width: 1; stroke-dasharray: none; stroke-linecap: butt; stroke-linejoin: miter; stroke-miterlimit: 10; fill: rgb(255,255,254); fill-rule: evenodd; opacity: 1;" transform=" matrix(1 0 0 1 0 0) " stroke-linecap="round"/>
</g>
</svg>