<svg width="64" height="64" viewBox="0 0 64 64" fill="none" xmlns="http://www.w3.org/2000/svg">
<path d="M13.4468 40.4398C13.4468 44.1403 10.4238 47.1633 6.72331 47.1633C3.02278 47.1633 -0.000183105 44.1403 -0.000183105 40.4398C-0.000183105 36.7393 3.02278 33.7163 6.72331 33.7163H13.4468V40.4398Z" fill="black" fill-opacity="0.8"/>
<path d="M16.8339 40.4398C16.8339 36.7393 19.8568 33.7163 23.5574 33.7163C27.2579 33.7163 30.2808 36.7393 30.2808 40.4398V57.2746C30.2808 60.9751 27.2579 63.9981 23.5574 63.9981C19.8568 63.9981 16.8339 60.9751 16.8339 57.2746V40.4398Z" fill="black" fill-opacity="0.8"/>
<path d="M23.5561 13.4475C19.8556 13.4475 16.8326 10.4245 16.8326 6.72398C16.8326 3.02346 19.8556 0.000488281 23.5561 0.000488281C27.2567 0.000488281 30.2796 3.02346 30.2796 6.72398V13.4475H23.5561Z" fill="black" fill-opacity="0.8"/>
<path d="M23.5581 16.8374C27.2586 16.8374 30.2816 19.8604 30.2816 23.5609C30.2816 27.2614 27.2586 30.2844 23.5581 30.2844H6.72331C3.02278 30.2844 -0.000183105 27.2614 -0.000183105 23.5609C-0.000183105 19.8604 3.02278 16.8374 6.72331 16.8374H23.5581Z" fill="black" fill-opacity="0.8"/>
<path d="M50.5534 23.5607C50.5534 19.8601 53.5764 16.8372 57.2769 16.8372C60.9774 16.8372 64.0004 19.8601 64.0004 23.5607C64.0004 27.2612 60.9774 30.2841 57.2769 30.2841H50.5534V23.5607Z" fill="black" fill-opacity="0.8"/>
<path d="M47.1675 23.5585C47.1675 27.2591 44.1445 30.282 40.444 30.282C36.7435 30.282 33.7205 27.2591 33.7205 23.5585V6.72374C33.7205 3.02321 36.7435 0.000244141 40.444 0.000244141C44.1445 0.000244141 47.1675 3.02321 47.1675 6.72374V23.5585Z" fill="black" fill-opacity="0.8"/>
<path d="M40.4441 50.5532C44.1446 50.5532 47.1676 53.5762 47.1676 57.2767C47.1676 60.9772 44.1446 64.0002 40.4441 64.0002C36.7435 64.0002 33.7206 60.9772 33.7206 57.2767V50.5532H40.4441Z" fill="black" fill-opacity="0.8"/>
<path d="M40.4441 47.1633C36.7435 47.1633 33.7206 44.1403 33.7206 40.4398C33.7206 36.7393 36.7435 33.7163 40.4441 33.7163H57.2789C60.9794 33.7163 64.0024 36.7393 64.0024 40.4398C64.0024 44.1403 60.9794 47.1633 57.2789 47.1633H40.4441Z" fill="black" fill-opacity="0.8"/>
</svg>
