<svg viewBox="0 0 12 12" fill="none" xmlns="http://www.w3.org/2000/svg">
  <g clip-path="url(#clip0_3541_9318)">
    <path fill-rule="evenodd" clip-rule="evenodd"
      d="M12 6C12 9.31371 9.31371 12 6 12C2.68629 12 0 9.31371 0 6C0 2.68629 2.68629 0 6 0C9.31371 0 12 2.68629 12 6ZM5.98052 2.2011C7.31639 2.14651 8.45502 3.16999 8.53839 4.50881C8.53936 4.52433 8.53984 4.53987 8.53984 4.55542C8.53984 5.39277 8.08585 6.1643 7.35386 6.57093L7.35381 6.57096L6.36421 7.12076C6.00212 7.32193 5.54552 7.19148 5.34435 6.82939C5.14319 6.46731 5.27364 6.0107 5.63572 5.80954L6.62538 5.25971L6.62543 5.25968C6.87454 5.1213 7.03151 4.86197 7.03952 4.57824C6.99474 4.06187 6.54752 3.67174 6.02714 3.70055C6.00298 3.70189 5.97876 3.70206 5.95457 3.70106C5.47501 3.68115 5.04916 4.00533 4.94068 4.47288C4.84705 4.87638 4.44406 5.12758 4.04057 5.03396C3.63707 4.94034 3.38587 4.53735 3.47949 4.13385C3.74824 2.97559 4.79526 2.16893 5.98052 2.2011ZM5.99899 7.92485C6.21806 7.92456 6.42823 8.01146 6.58313 8.16636C6.73803 8.32127 6.82493 8.53144 6.82464 8.7505C6.82405 9.20562 6.45483 9.5742 5.99971 9.57401C5.54458 9.57381 5.17568 9.2049 5.17549 8.74978C5.17529 8.29466 5.54387 7.92544 5.99899 7.92485Z"
      fill="currentColor" />
  </g>
  <defs>
    <clipPath id="clip0_3541_9318">
      <rect width="12" height="12" fill="white" />
    </clipPath>
  </defs>
</svg>
