<svg width="132" height="60" viewBox="0 0 132 60" fill="none" xmlns="http://www.w3.org/2000/svg">
<path d="M0 8C0 3.58172 3.58172 0 8 0H16C20.4183 0 24 3.58172 24 8V16C24 20.4183 20.4183 24 16 24H8C3.58172 24 0 20.4183 0 16V8Z" fill="#9AE5B0"/>
<path d="M8 0.25H16C20.2802 0.25 23.75 3.71979 23.75 8V16C23.75 20.2802 20.2802 23.75 16 23.75H8C3.71979 23.75 0.25 20.2802 0.25 16V8C0.25 3.71979 3.71979 0.25 8 0.25Z" stroke="black" stroke-opacity="0.05" stroke-width="0.5"/>
<path d="M13.748 17.2471V14.9137C13.748 14.2692 14.2701 13.7471 14.9147 13.7471H17.248M15.5984 16.5634L16.7359 15.4259C17.0637 15.0981 17.248 14.653 17.248 14.1887V9.0804C17.248 7.79182 16.2033 6.74707 14.9147 6.74707H9.08138C7.7928 6.74707 6.74805 7.79182 6.74805 9.0804V14.9137C6.74805 16.2023 7.7928 17.2471 9.08138 17.2471H13.9481C14.567 17.2471 15.1603 17.0015 15.5984 16.5634Z" stroke="black" stroke-opacity="0.8" stroke-width="0.875" stroke-linecap="round" stroke-linejoin="round"/>
<path d="M36 8C36 3.58172 39.5817 0 44 0H52C56.4183 0 60 3.58172 60 8V16C60 20.4183 56.4183 24 52 24H44C39.5817 24 36 20.4183 36 16V8Z" fill="#E5E5E5"/>
<path d="M44 0.25H52C56.2802 0.25 59.75 3.71979 59.75 8V16C59.75 20.2802 56.2802 23.75 52 23.75H44C39.7198 23.75 36.25 20.2802 36.25 16V8C36.25 3.71979 39.7198 0.25 44 0.25Z" stroke="black" stroke-opacity="0.05" stroke-width="0.5"/>
<path d="M45.668 10.8333V9.08333C45.668 7.79475 46.7127 6.75 48.0013 6.75C49.2899 6.75 50.3346 7.79475 50.3346 9.08333V10.8333M50.918 17.25H45.0846C44.4401 17.25 43.918 16.7279 43.918 16.0833V12C43.918 11.3554 44.4401 10.8333 45.0846 10.8333H50.918C51.5626 10.8333 52.0846 11.3554 52.0846 12V16.0833C52.0846 16.7279 51.5626 17.25 50.918 17.25Z" stroke="black" stroke-opacity="0.8" stroke-width="0.875" stroke-linecap="round" stroke-linejoin="round"/>
<path d="M72 8C72 3.58172 75.5817 0 80 0H88C92.4183 0 96 3.58172 96 8V16C96 20.4183 92.4183 24 88 24H80C75.5817 24 72 20.4183 72 16V8Z" fill="#FEEA90"/>
<path d="M80 0.25H88C92.2802 0.25 95.75 3.71979 95.75 8V16C95.75 20.2802 92.2802 23.75 88 23.75H80C75.7198 23.75 72.25 20.2802 72.25 16V8C72.25 3.71979 75.7198 0.25 80 0.25Z" stroke="black" stroke-opacity="0.05" stroke-width="0.5"/>
<path d="M81.2006 17.5798C82.7408 17.5798 83.9898 16.3308 83.9898 14.7907C83.9898 13.2505 82.7414 12.0015 81.2006 12.0015C79.6599 12.0015 78.4115 13.2505 78.4115 14.7907C78.4115 15.2115 78.5047 15.6108 78.6714 15.9691L78.3125 17.689L80.029 17.3244C80.3862 17.4899 80.7837 17.5826 81.2035 17.5826M80.9043 12.0174C80.7007 11.5505 80.5875 11.0415 80.5875 10.5074C80.5875 8.22273 82.6339 6.38965 85.1375 6.38965C87.6411 6.38965 89.6875 8.22273 89.6875 10.5074C89.6875 11.8576 88.9697 13.0463 87.8681 13.7959C87.8686 14.2259 87.8675 14.8054 87.8675 15.414L86.0822 14.5347C85.7768 14.5933 85.4611 14.6251 85.1375 14.6251C84.7354 14.6251 84.3452 14.5774 83.9733 14.4881" stroke="black" stroke-opacity="0.8" stroke-width="0.875" stroke-linecap="round" stroke-linejoin="round"/>
<path d="M108 8C108 3.58172 111.582 0 116 0H124C128.418 0 132 3.58172 132 8V16C132 20.4183 128.418 24 124 24H116C111.582 24 108 20.4183 108 16V8Z" fill="#E5E5E5"/>
<path d="M116 0.25H124C128.28 0.25 131.75 3.71979 131.75 8V16C131.75 20.2802 128.28 23.75 124 23.75H116C111.72 23.75 108.25 20.2802 108.25 16V8C108.25 3.71979 111.72 0.25 116 0.25Z" stroke="black" stroke-opacity="0.05" stroke-width="0.5"/>
<path d="M117.668 10.8333V9.08333C117.668 7.79475 118.713 6.75 120.001 6.75C121.29 6.75 122.335 7.79475 122.335 9.08333V10.8333M122.918 17.25H117.085C116.44 17.25 115.918 16.7279 115.918 16.0833V12C115.918 11.3554 116.44 10.8333 117.085 10.8333H122.918C123.563 10.8333 124.085 11.3554 124.085 12V16.0833C124.085 16.7279 123.563 17.25 122.918 17.25Z" stroke="black" stroke-opacity="0.8" stroke-width="0.875" stroke-linecap="round" stroke-linejoin="round"/>
<path d="M0 44C0 39.5817 3.58172 36 8 36H16C20.4183 36 24 39.5817 24 44V52C24 56.4183 20.4183 60 16 60H8C3.58172 60 0 56.4183 0 52V44Z" fill="#E5E5E5"/>
<path d="M8 36.25H16C20.2802 36.25 23.75 39.7198 23.75 44V52C23.75 56.2802 20.2802 59.75 16 59.75H8C3.71979 59.75 0.25 56.2802 0.25 52V44C0.25 39.7198 3.71979 36.25 8 36.25Z" stroke="black" stroke-opacity="0.05" stroke-width="0.5"/>
<path d="M9.66797 46.8333V45.0833C9.66797 43.7947 10.7127 42.75 12.0013 42.75C13.2899 42.75 14.3346 43.7947 14.3346 45.0833V46.8333M14.918 53.25H9.08464C8.44005 53.25 7.91797 52.7279 7.91797 52.0833V48C7.91797 47.3554 8.44005 46.8333 9.08464 46.8333H14.918C15.5626 46.8333 16.0846 47.3554 16.0846 48V52.0833C16.0846 52.7279 15.5626 53.25 14.918 53.25Z" stroke="black" stroke-opacity="0.8" stroke-width="0.875" stroke-linecap="round" stroke-linejoin="round"/>
<path d="M36 44C36 39.5817 39.5817 36 44 36H52C56.4183 36 60 39.5817 60 44V52C60 56.4183 56.4183 60 52 60H44C39.5817 60 36 56.4183 36 52V44Z" fill="#FFCE96"/>
<path d="M44 36.25H52C56.2802 36.25 59.75 39.7198 59.75 44V52C59.75 56.2802 56.2802 59.75 52 59.75H44C39.7198 59.75 36.25 56.2802 36.25 52V44C36.25 39.7198 39.7198 36.25 44 36.25Z" stroke="black" stroke-opacity="0.05" stroke-width="0.5"/>
<path d="M49.0958 45.8852L45.8956 49.0853C45.4138 49.5672 45.4138 50.3488 45.8956 50.8307V50.8307C46.3775 51.3125 47.1591 51.3125 47.641 50.8307L51.8596 46.612C52.7434 45.7283 52.7434 44.2956 51.8596 43.4118V43.4118C50.9759 42.5281 49.5432 42.5281 48.6595 43.4118L44.4408 47.6305C43.1551 48.9162 43.1551 50.9998 44.4408 52.2855V52.2855C45.7265 53.5712 47.8101 53.5712 49.0958 52.2855L51.6561 49.7253" stroke="black" stroke-opacity="0.8" stroke-width="0.875" stroke-linecap="round" stroke-linejoin="round"/>
<path d="M72 44C72 39.5817 75.5817 36 80 36H88C92.4183 36 96 39.5817 96 44V52C96 56.4183 92.4183 60 88 60H80C75.5817 60 72 56.4183 72 52V44Z" fill="#E5E5E5"/>
<path d="M80 36.25H88C92.2802 36.25 95.75 39.7198 95.75 44V52C95.75 56.2802 92.2802 59.75 88 59.75H80C75.7198 59.75 72.25 56.2802 72.25 52V44C72.25 39.7198 75.7198 36.25 80 36.25Z" stroke="black" stroke-opacity="0.05" stroke-width="0.5"/>
<path d="M81.668 46.8333V45.0833C81.668 43.7947 82.7127 42.75 84.0013 42.75C85.2899 42.75 86.3346 43.7947 86.3346 45.0833V46.8333M86.918 53.25H81.0846C80.4401 53.25 79.918 52.7279 79.918 52.0833V48C79.918 47.3554 80.4401 46.8333 81.0846 46.8333H86.918C87.5626 46.8333 88.0846 47.3554 88.0846 48V52.0833C88.0846 52.7279 87.5626 53.25 86.918 53.25Z" stroke="black" stroke-opacity="0.8" stroke-width="0.875" stroke-linecap="round" stroke-linejoin="round"/>
<path d="M108 44C108 39.5817 111.582 36 116 36H124C128.418 36 132 39.5817 132 44V52C132 56.4183 128.418 60 124 60H116C111.582 60 108 56.4183 108 52V44Z" fill="#FF9F95"/>
<path d="M116 36.25H124C128.28 36.25 131.75 39.7198 131.75 44V52C131.75 56.2802 128.28 59.75 124 59.75H116C111.72 59.75 108.25 56.2802 108.25 52V44C108.25 39.7198 111.72 36.25 116 36.25Z" stroke="black" stroke-opacity="0.05" stroke-width="0.5"/>
<path d="M121.04 43.334L118.963 52.6673M123.501 45.6673L125.835 48.0007L123.501 50.334M116.501 50.334L114.168 48.0007L116.501 45.6673" stroke="black" stroke-opacity="0.8" stroke-width="0.875" stroke-linecap="round" stroke-linejoin="round"/>
</svg>
