<svg width="24" height="24" viewBox="0 0 24 24" fill="none" xmlns="http://www.w3.org/2000/svg">
<path d="M14.7485 16.25C13.2476 14.7408 12.4999 13.2338 12.4985 11.25C12.4999 13.2338 11.7894 14.758 10.25 16.25M9.25 10.6912C9.25 10.6912 11.2206 10.9559 12.4996 10.9559C13.7787 10.9559 15.75 10.6912 15.75 10.6912M12.5 21.25C17.6086 21.25 21.75 17.1086 21.75 12C21.75 6.89137 17.6086 2.75 12.5 2.75C7.39137 2.75 3.25 6.89137 3.25 12C3.25 17.1086 7.39137 21.25 12.5 21.25ZM13.25 8C13.25 8.41421 12.9142 8.75 12.5 8.75C12.0858 8.75 11.75 8.41421 11.75 8C11.75 7.58579 12.0858 7.25 12.5 7.25C12.9142 7.25 13.25 7.58579 13.25 8Z" stroke="black" style="stroke:black;stroke-opacity:1;" stroke-width="1.5" stroke-linecap="round" stroke-linejoin="round"/>
</svg>
