<svg width="24" height="24" viewBox="0 0 24 24" fill="none" xmlns="http://www.w3.org/2000/svg">
<path d="M3.9477 5.69104L3.63473 5.00946L3.63473 5.00946L3.9477 5.69104ZM11.7477 2.10947L12.0607 2.79105L12.0607 2.79105L11.7477 2.10947ZM12.7492 2.10947L12.4362 2.79105L12.4362 2.79105L12.7492 2.10947ZM20.5492 5.69104L20.2362 6.37262L20.2362 6.37262L20.5492 5.69104ZM20.3981 13.8868L20.0851 14.5684L20.0851 14.5684L20.3981 13.8868ZM12.7492 10.3746L12.4362 11.0562L12.4362 11.0562L12.7492 10.3746ZM11.7477 10.3746L12.0607 11.0562L12.0607 11.0562L11.7477 10.3746ZM4.09882 13.8868L4.41178 14.5684L4.41178 14.5684L4.09882 13.8868ZM8.88692 5.81133L8.57429 5.12959L8.57429 5.12959L8.88692 5.81133ZM7.1026 6.62957L7.41523 7.31131L7.41523 7.31131L7.1026 6.62957ZM7.23184 10.0098L7.54447 10.6915L7.54447 10.6915L7.23184 10.0098ZM9.01616 9.19155L8.70354 8.50981L8.70353 8.50981L9.01616 9.19155ZM15.3488 5.88261L15.0359 6.56419L15.0359 6.56419L15.3488 5.88261ZM14.4984 11.1744H13.7484V11.6553L14.1855 11.856L14.4984 11.1744ZM17.8734 12.7241L17.5605 13.4057L18.6234 13.8938V12.7241H17.8734ZM17.1742 6.72077L16.8612 7.40236L16.8612 7.40236L17.1742 6.72077ZM3.63473 5.00946C2.94227 5.32742 2.49844 6.01959 2.49844 6.78157H3.99844C3.99844 6.60573 4.10086 6.44599 4.26066 6.37262L3.63473 5.00946ZM11.4347 1.42789L3.63473 5.00946L4.26066 6.37262L12.0607 2.79105L11.4347 1.42789ZM13.0622 1.42789C12.5456 1.1907 11.9513 1.1907 11.4347 1.42789L12.0607 2.79105C12.1799 2.73632 12.317 2.73632 12.4362 2.79105L13.0622 1.42789ZM20.8622 5.00946L13.0622 1.42789L12.4362 2.79105L20.2362 6.37262L20.8622 5.00946ZM21.9984 6.78157C21.9984 6.01959 21.5546 5.32742 20.8622 5.00945L20.2362 6.37262C20.396 6.44599 20.4984 6.60573 20.4984 6.78157H21.9984ZM21.9984 13.3415V6.78157H20.4984V13.3415H21.9984ZM20.0851 14.5684C20.9794 14.979 21.9984 14.3256 21.9984 13.3415H20.4984C20.4984 13.2322 20.6117 13.1596 20.711 13.2052L20.0851 14.5684ZM12.4362 11.0562L20.0851 14.5684L20.711 13.2052L13.0622 9.69304L12.4362 11.0562ZM12.0607 11.0562C12.1799 11.0015 12.317 11.0015 12.4362 11.0562L13.0622 9.69304C12.5456 9.45586 11.9513 9.45586 11.4347 9.69304L12.0607 11.0562ZM4.41178 14.5684L12.0607 11.0562L11.4347 9.69304L3.78585 13.2052L4.41178 14.5684ZM2.49844 13.3415C2.49844 14.3256 3.51748 14.979 4.41178 14.5684L3.78585 13.2052C3.88522 13.1596 3.99844 13.2322 3.99844 13.3415H2.49844ZM2.49844 6.78157V13.3415H3.99844V6.78157H2.49844ZM9.19955 6.49307C9.04449 6.56417 8.8679 6.45087 8.8679 6.28029H10.3679C10.3679 5.35778 9.41284 4.74506 8.57429 5.12959L9.19955 6.49307ZM7.41523 7.31131L9.19955 6.49307L8.57429 5.12959L6.78997 5.94784L7.41523 7.31131ZM7.25087 7.5675C7.25087 7.45732 7.31507 7.35724 7.41523 7.31131L6.78997 5.94784C6.15679 6.2382 5.75087 6.87091 5.75087 7.5675H7.25087ZM7.25087 9.54082V7.5675H5.75087V9.54082H7.25087ZM6.91922 9.32805C7.07427 9.25695 7.25087 9.37025 7.25087 9.54082H5.75087C5.75087 10.4633 6.70592 11.0761 7.54447 10.6915L6.91922 9.32805ZM8.70353 8.50981L6.91922 9.32805L7.54447 10.6915L9.32879 9.87328L8.70353 8.50981ZM8.8679 8.25362C8.8679 8.3638 8.80369 8.46388 8.70354 8.50981L9.32879 9.87328C9.96197 9.58292 10.3679 8.95021 10.3679 8.25362H8.8679ZM8.8679 6.28029V8.25362H10.3679V6.28029H8.8679ZM15.2484 6.42787C15.2484 6.53722 15.1352 6.60982 15.0359 6.56419L15.6618 5.20103C14.7675 4.79039 13.7484 5.44379 13.7484 6.42787H15.2484ZM15.2484 11.1744V6.42787H13.7484V11.1744H15.2484ZM18.1864 12.0426L14.8114 10.4929L14.1855 11.856L17.5605 13.4057L18.1864 12.0426ZM17.1234 7.8113V12.7241H18.6234V7.8113H17.1234ZM16.8612 7.40236C17.021 7.47573 17.1234 7.63546 17.1234 7.8113H18.6234C18.6234 7.04933 18.1796 6.35716 17.4872 6.03919L16.8612 7.40236ZM15.0359 6.56419L16.8612 7.40236L17.4872 6.03919L15.6618 5.20103L15.0359 6.56419Z" fill="black" style="fill:black;fill-opacity:1;"/>
<path d="M4.27353 18.0268C3.79106 17.8182 3.79106 17.134 4.27353 16.9254L11.7737 13.682C12.0776 13.5506 12.4224 13.5506 12.7263 13.682L20.2265 16.9254C20.7089 17.134 20.7089 17.8182 20.2265 18.0268L13.2026 21.0641C12.5947 21.327 11.9053 21.327 11.2974 21.0641L4.27353 18.0268Z" stroke="black" style="stroke:black;stroke-opacity:1;" stroke-width="1.5"/>
</svg>
