<svg width="14" height="14" viewBox="0 0 14 14" fill="none" xmlns="http://www.w3.org/2000/svg">
<path fill-rule="evenodd" clip-rule="evenodd" d="M6.00549 0.754196C6.23329 0.526393 6.60265 0.526393 6.83044 0.754196L8.58044 2.5042C8.80824 2.73201 8.80824 3.10135 8.58044 3.32916L6.83044 5.07916C6.60265 5.30696 6.23329 5.30696 6.00549 5.07916C5.77769 4.85135 5.77769 4.48201 6.00549 4.2542L6.75969 3.50001H5.83464C3.90164 3.50001 2.33464 5.06701 2.33464 7.00001C2.33464 7.95388 2.71543 8.81762 3.33461 9.44949C3.5601 9.67955 3.55635 10.0489 3.32624 10.2744C3.09614 10.4999 2.72681 10.4961 2.50133 10.266C1.67712 9.42493 1.16797 8.27133 1.16797 7.00001C1.16797 4.42268 3.25731 2.33334 5.83464 2.33334H6.75969L6.00549 1.57916C5.77769 1.35135 5.77769 0.982006 6.00549 0.754196ZM10.6764 3.72563C10.9065 3.50014 11.2758 3.50389 11.5013 3.73399C12.3255 4.57509 12.8346 5.72867 12.8346 7.00001C12.8346 9.57735 10.7453 11.6667 8.16797 11.6667H7.24292L7.99711 12.4209C8.2249 12.6487 8.2249 13.018 7.99711 13.2458C7.76932 13.4736 7.39995 13.4736 7.17216 13.2458L5.42215 11.4958C5.19435 11.268 5.19435 10.8987 5.42215 10.6709L7.17216 8.92087C7.39995 8.69308 7.76932 8.69308 7.99711 8.92087C8.2249 9.14866 8.2249 9.51803 7.99711 9.74582L7.24292 10.5H8.16797C10.101 10.5 11.668 8.933 11.668 7.00001C11.668 6.04614 11.2872 5.18241 10.668 4.55054C10.4425 4.32044 10.4462 3.95111 10.6764 3.72563Z" fill="currentColor"/>
</svg>
