<svg width="24" height="24" viewBox="0 0 24 24" fill="none" xmlns="http://www.w3.org/2000/svg">
<path d="M18.25 18.25C19.3546 18.25 20.25 17.3546 20.25 16.25V13.75C20.25 12.6454 19.3546 11.75 18.25 11.75C17.1454 11.75 16.25 12.6454 16.25 13.75V14.3214H7.75V13.75C7.75 12.6454 6.85457 11.75 5.75 11.75C4.64543 11.75 3.75 12.6454 3.75 13.75V16.25C3.75 17.3546 4.64543 18.25 5.75 18.25M18.25 18.25H5.75M18.25 18.25V20.25M5.75 18.25V20.25M18.25 11.25V5.75C18.25 4.64543 17.3546 3.75 16.25 3.75H7.75C6.64543 3.75 5.75 4.64543 5.75 5.75V11.25" stroke="black" style="stroke:black;stroke-opacity:1;" stroke-width="1.5" stroke-linecap="round" stroke-linejoin="round"/>
</svg>
