<svg width="24" height="24" viewBox="0 0 24 24" fill="none" xmlns="http://www.w3.org/2000/svg">
<path d="M6.75 12C6.75 12.4142 7.08579 12.75 7.5 12.75C7.91421 12.75 8.25 12.4142 8.25 12C8.25 11.5858 7.91421 11.25 7.5 11.25C7.08579 11.25 6.75 11.5858 6.75 12ZM11.25 12C11.25 12.4142 11.5858 12.75 12 12.75C12.4142 12.75 12.75 12.4142 12.75 12C12.75 11.5858 12.4142 11.25 12 11.25C11.5858 11.25 11.25 11.5858 11.25 12ZM15.75 12C15.75 12.4142 16.0858 12.75 16.5 12.75C16.9142 12.75 17.25 12.4142 17.25 12C17.25 11.5858 16.9142 11.25 16.5 11.25C16.0858 11.25 15.75 11.5858 15.75 12Z" fill="black" style="fill:black;fill-opacity:1;"/>
<path d="M3.3145 15.9522L2.62184 16.2398L2.62189 16.2399L3.3145 15.9522ZM3.3518 16.0433L4.05597 15.7852L4.05593 15.785L3.3518 16.0433ZM2.25 19.8828L1.6513 19.4311C1.51559 19.6109 1.46793 19.8423 1.52151 20.0611C1.57509 20.28 1.72423 20.4632 1.92769 20.56L2.25 19.8828ZM6.71766 19.2188L7.06795 18.5556C6.81347 18.4212 6.50452 18.4443 6.27281 18.615L6.71766 19.2188ZM22.5 12C22.5 9.22327 21.4709 6.94126 19.591 5.36647C17.727 3.80507 15.1014 3 12 3V4.5C14.8569 4.5 17.1063 5.24181 18.6277 6.51634C20.1333 7.77749 21 9.62048 21 12H22.5ZM12 3C8.89859 3 6.27295 3.80507 4.40901 5.36647C2.5291 6.94126 1.5 9.22327 1.5 12H3C3 9.62048 3.86674 7.77749 5.37224 6.51634C6.89372 5.24181 9.14308 4.5 12 4.5V3ZM1.5 12C1.5 12.7949 1.76422 13.7934 2.01376 14.5754C2.27092 15.3813 2.54585 16.0568 2.62184 16.2398L4.00716 15.6646C3.93919 15.5009 3.68187 14.8687 3.44277 14.1194C3.19605 13.3462 3 12.5419 3 12H1.5ZM2.62189 16.2399C2.62633 16.2506 2.63053 16.2605 2.6338 16.2682C2.63738 16.2767 2.63967 16.282 2.64195 16.2875C2.64626 16.2978 2.64746 16.301 2.64767 16.3016L4.05593 15.785C4.03716 15.7339 4.00941 15.67 4.00711 15.6645L2.62189 16.2399ZM2.64763 16.3014C2.6656 16.3505 3.09393 17.5191 1.6513 19.4311L2.8487 20.3345C4.62051 17.9863 4.23618 16.2767 4.05597 15.7852L2.64763 16.3014ZM1.92769 20.56C3.26058 21.1944 4.60161 20.9739 5.54318 20.6457C6.01999 20.4795 6.4178 20.2782 6.69677 20.1185C6.83693 20.0383 6.9489 19.9676 7.02782 19.9155C7.06733 19.8894 7.09869 19.8679 7.12131 19.8521C7.13263 19.8441 7.14177 19.8376 7.14865 19.8327C7.1521 19.8302 7.15498 19.8281 7.15729 19.8264C7.15845 19.8256 7.15946 19.8249 7.16034 19.8242C7.16077 19.8239 7.16117 19.8236 7.16153 19.8233C7.16171 19.8232 7.16196 19.823 7.16205 19.823C7.16229 19.8228 7.16251 19.8226 6.71766 19.2188C6.27281 18.615 6.27302 18.6148 6.27322 18.6147C6.27327 18.6146 6.27347 18.6145 6.27358 18.6144C6.2738 18.6142 6.27399 18.6141 6.27414 18.614C6.27446 18.6138 6.27463 18.6136 6.27467 18.6136C6.27476 18.6135 6.27431 18.6139 6.27333 18.6146C6.27138 18.616 6.26733 18.6189 6.26127 18.6231C6.24912 18.6316 6.22893 18.6455 6.20129 18.6638C6.14592 18.7003 6.06119 18.754 5.95178 18.8166C5.73161 18.9426 5.41876 19.1006 5.04948 19.2293C4.29889 19.4909 3.40609 19.6024 2.57231 19.2056L1.92769 20.56ZM6.36737 19.882C8.12483 20.8103 10.1698 21 12 21V19.5C10.2378 19.5 8.49443 19.3091 7.06795 18.5556L6.36737 19.882ZM12 21C15.1014 21 17.727 20.1949 19.591 18.6335C21.4709 17.0587 22.5 14.7767 22.5 12H21C21 14.3795 20.1333 16.2225 18.6277 17.4836C17.1063 18.7582 14.8569 19.5 12 19.5V21ZM6 12C6 12.8284 6.67157 13.5 7.5 13.5V12H6ZM7.5 13.5C8.32843 13.5 9 12.8284 9 12H7.5V13.5ZM9 12C9 11.1716 8.32843 10.5 7.5 10.5V12H9ZM7.5 10.5C6.67157 10.5 6 11.1716 6 12H7.5V10.5ZM10.5 12C10.5 12.8284 11.1716 13.5 12 13.5V12H10.5ZM12 13.5C12.8284 13.5 13.5 12.8284 13.5 12H12V13.5ZM13.5 12C13.5 11.1716 12.8284 10.5 12 10.5V12H13.5ZM12 10.5C11.1716 10.5 10.5 11.1716 10.5 12H12V10.5ZM15 12C15 12.8284 15.6716 13.5 16.5 13.5V12H15ZM16.5 13.5C17.3284 13.5 18 12.8284 18 12H16.5V13.5ZM18 12C18 11.1716 17.3284 10.5 16.5 10.5V12H18ZM16.5 10.5C15.6716 10.5 15 11.1716 15 12H16.5V10.5Z" fill="black" style="fill:black;fill-opacity:1;"/>
</svg>
