<svg width="24" height="24" viewBox="0 0 24 24" fill="none" xmlns="http://www.w3.org/2000/svg">
<path d="M15.5425 9.45996L12 13.0004M8.46452 16.5379C7.03392 15.1073 6.60594 12.9558 7.38017 11.0867C8.15439 9.21751 9.97833 7.99878 12.0015 7.99878C14.0247 7.99878 15.8486 9.21751 16.6228 11.0867C17.3971 12.9558 16.9691 15.1073 15.5385 16.5379C13.585 18.4913 10.418 18.4913 8.46452 16.5379Z" stroke="black" style="stroke:black;stroke-opacity:1;" stroke-width="1.5" stroke-linecap="round" stroke-linejoin="round"/>
<path d="M5.28014 6.28063C5.3874 6.17324 5.5488 6.14106 5.68904 6.1991C5.82928 6.25714 5.92074 6.39396 5.92074 6.54574C5.92074 6.69752 5.82928 6.83434 5.68904 6.89238C5.5488 6.95042 5.3874 6.91824 5.28014 6.81085C5.20964 6.74064 5.17001 6.64524 5.17001 6.54574C5.17001 6.44624 5.20964 6.35084 5.28014 6.28063" stroke="black" style="stroke:black;stroke-opacity:1;" stroke-width="1.5" stroke-linecap="round" stroke-linejoin="round"/>
<path d="M18.1896 19.19C18.2968 19.0826 18.4582 19.0504 18.5985 19.1085C18.7387 19.1665 18.8302 19.3033 18.8302 19.4551C18.8302 19.6069 18.7387 19.7437 18.5985 19.8017C18.4582 19.8598 18.2968 19.8276 18.1896 19.7202C18.1191 19.65 18.0794 19.5546 18.0794 19.4551C18.0794 19.3556 18.1191 19.2602 18.1896 19.19" stroke="black" style="stroke:black;stroke-opacity:1;" stroke-width="1.5" stroke-linecap="round" stroke-linejoin="round"/>
<path d="M2.60607 12.7353C2.71333 12.6279 2.87472 12.5957 3.01497 12.6538C3.15521 12.7118 3.24667 12.8486 3.24667 13.0004C3.24667 13.1522 3.15521 13.289 3.01497 13.3471C2.87472 13.4051 2.71333 13.3729 2.60607 13.2655C2.53557 13.1953 2.49594 13.0999 2.49594 13.0004C2.49594 12.9009 2.53557 12.8055 2.60607 12.7353" stroke="black" style="stroke:black;stroke-opacity:1;" stroke-width="1.5" stroke-linecap="round" stroke-linejoin="round"/>
<path d="M20.8636 12.7353C20.9709 12.6279 21.1323 12.5957 21.2725 12.6538C21.4128 12.7118 21.5042 12.8486 21.5042 13.0004C21.5042 13.1522 21.4128 13.289 21.2725 13.3471C21.1323 13.4051 20.9709 13.3729 20.8636 13.2655C20.7931 13.1953 20.7535 13.0999 20.7535 13.0004C20.7535 12.9009 20.7931 12.8055 20.8636 12.7353" stroke="black" style="stroke:black;stroke-opacity:1;" stroke-width="1.5" stroke-linecap="round" stroke-linejoin="round"/>
<path d="M5.28014 19.19C5.3874 19.0826 5.5488 19.0504 5.68904 19.1085C5.82928 19.1665 5.92074 19.3033 5.92074 19.4551C5.92074 19.6069 5.82928 19.7437 5.68904 19.8017C5.5488 19.8598 5.3874 19.8276 5.28014 19.7202C5.20964 19.65 5.17001 19.5546 5.17001 19.4551C5.17001 19.3556 5.20964 19.2602 5.28014 19.19" stroke="black" style="stroke:black;stroke-opacity:1;" stroke-width="1.5" stroke-linecap="round" stroke-linejoin="round"/>
<path d="M18.1896 6.28063C18.2968 6.17324 18.4582 6.14106 18.5985 6.1991C18.7387 6.25714 18.8302 6.39396 18.8302 6.54574C18.8302 6.69752 18.7387 6.83434 18.5985 6.89238C18.4582 6.95042 18.2968 6.91824 18.1896 6.81085C18.1191 6.74064 18.0794 6.64524 18.0794 6.54574C18.0794 6.44624 18.1191 6.35084 18.1896 6.28063" stroke="black" style="stroke:black;stroke-opacity:1;" stroke-width="1.5" stroke-linecap="round" stroke-linejoin="round"/>
<path d="M11.7349 3.6065C11.8421 3.49911 12.0035 3.46692 12.1438 3.52496C12.284 3.583 12.3755 3.71983 12.3755 3.87161C12.3755 4.02339 12.284 4.16021 12.1438 4.21825C12.0035 4.27629 11.8421 4.24411 11.7349 4.13672C11.6644 4.06651 11.6247 3.97111 11.6247 3.87161C11.6247 3.77211 11.6644 3.67671 11.7349 3.6065" stroke="black" style="stroke:black;stroke-opacity:1;" stroke-width="1.5" stroke-linecap="round" stroke-linejoin="round"/>
</svg>
