<svg width="24" height="24" viewBox="0 0 24 24" fill="none" xmlns="http://www.w3.org/2000/svg">
<path d="M21 12H15M15 12L17 10M15 12L17 14M11 20H15C16.105 20 17 19.105 17 18V17M17 7V6C17 4.895 16.105 4 15 4H5M11 19.998V8.503C11 7.813 10.645 7.172 10.06 6.807L6.06 4.307C4.728 3.475 3 4.432 3 6.003V17.497C3 18.187 3.355 18.828 3.94 19.193L7.94 21.693C9.272 22.526 11 21.568 11 19.998Z" stroke="black" style="stroke:black;stroke-opacity:1;" stroke-width="1.5" stroke-linecap="round" stroke-linejoin="round"/>
</svg>
