<svg width="24" height="24" viewBox="0 0 24 24" fill="none" xmlns="http://www.w3.org/2000/svg">
<path d="M20.0033 10.542L17.088 13.4572M20.0033 13.4572L17.088 10.542M19.0028 6.99753V5.99711C19.003 5.46641 18.7922 4.95741 18.417 4.58215C18.0417 4.20689 17.5327 3.99613 17.002 3.99628H5.99742M11.9999 20.0029H17.002C17.5327 20.0031 18.0417 19.7923 18.417 19.4171C18.7922 19.0418 19.003 18.5328 19.0028 18.0021V17.0017M11.9999 20.0005C11.9997 20.7278 11.6049 21.3976 10.9687 21.75C10.3326 22.1024 9.55526 22.0818 8.93864 21.6962L4.93697 19.1952C4.35173 18.8298 3.99626 18.1884 3.99658 17.4985V6.00011C3.99668 5.2728 4.39141 4.60281 5.02755 4.25023C5.66369 3.89765 6.44105 3.91801 7.05786 4.30341L11.0595 6.80445C11.6448 7.16985 12.0002 7.8112 11.9999 8.50115V20.0005Z" stroke="black" style="stroke:black;stroke-opacity:1;" stroke-width="1.5" stroke-linecap="round" stroke-linejoin="round"/>
</svg>
