<svg width="24" height="24" viewBox="0 0 24 24" fill="none" xmlns="http://www.w3.org/2000/svg">
<path d="M11.998 11.625C11.791 11.625 11.623 11.793 11.625 12C11.625 12.207 11.793 12.375 12 12.375C12.207 12.375 12.375 12.207 12.375 12C12.374 11.793 12.206 11.625 11.998 11.625" stroke="black" style="stroke:black;stroke-opacity:1;" stroke-width="1.5" stroke-linecap="round" stroke-linejoin="round"/>
<path d="M15.998 11.625C15.791 11.625 15.623 11.793 15.625 12C15.625 12.207 15.793 12.375 16 12.375C16.207 12.375 16.375 12.207 16.375 12C16.374 11.793 16.206 11.625 15.998 11.625" stroke="black" style="stroke:black;stroke-opacity:1;" stroke-width="1.5" stroke-linecap="round" stroke-linejoin="round"/>
<path d="M7.99801 11.625C7.79101 11.625 7.62301 11.793 7.62501 12C7.62501 12.207 7.79301 12.375 8.00001 12.375C8.20701 12.375 8.37501 12.207 8.37501 12C8.37401 11.793 8.20601 11.625 7.99801 11.625" stroke="black" style="stroke:black;stroke-opacity:1;" stroke-width="1.5" stroke-linecap="round" stroke-linejoin="round"/>
<path fill-rule="evenodd" clip-rule="evenodd" d="M21 12V12C21 16.971 16.971 21 12 21V21C7.029 21 3 16.971 3 12V12C3 7.029 7.029 3 12 3V3C16.971 3 21 7.029 21 12Z" stroke="black" style="stroke:black;stroke-opacity:1;" stroke-width="1.5" stroke-linecap="round" stroke-linejoin="round"/>
</svg>
