<svg width="24" height="24" viewBox="0 0 24 24" fill="none" xmlns="http://www.w3.org/2000/svg">
<path d="M15.359 15.3587C15.6519 15.0658 15.6519 14.591 15.359 14.2981C15.0661 14.0052 14.5913 14.0052 14.2984 14.2981L15.359 15.3587ZM9.7022 14.2981C9.40931 14.0052 8.93443 14.0052 8.64154 14.2981C8.34865 14.591 8.34865 15.0658 8.64155 15.3587L9.7022 14.2981ZM14.5 8.75H13.75V10.25H14.5V8.75ZM15 10.25H15.75V8.75H15V10.25ZM9 8.75H8.25V10.25H9V8.75ZM9.5 10.25H10.25V8.75H9.5V10.25ZM14.2984 14.2981C13.0292 15.5673 10.9714 15.5673 9.7022 14.2981L8.64155 15.3587C10.4966 17.2137 13.504 17.2137 15.359 15.3587L14.2984 14.2981ZM14.5 10.25H15V8.75H14.5V10.25ZM14.5 9.5C14.5 9.36189 14.6119 9.25 14.75 9.25V10.75C15.4403 10.75 16 10.1904 16 9.5H14.5ZM14.75 9.25C14.8881 9.25 15 9.36189 15 9.5H13.5C13.5 10.1904 14.0597 10.75 14.75 10.75V9.25ZM15 9.5C15 9.63811 14.8881 9.75 14.75 9.75V8.25C14.0597 8.25 13.5 8.80961 13.5 9.5H15ZM14.75 9.75C14.6119 9.75 14.5 9.63811 14.5 9.5H16C16 8.80961 15.4403 8.25 14.75 8.25V9.75ZM9 10.25H9.5V8.75H9V10.25ZM9 9.5C9 9.36193 9.11193 9.25 9.25 9.25V10.75C9.94035 10.75 10.5 10.1904 10.5 9.5H9ZM9.25 9.25C9.38807 9.25 9.5 9.36193 9.5 9.5H8C8 10.1904 8.55965 10.75 9.25 10.75V9.25ZM9.5 9.5C9.5 9.63807 9.38807 9.75 9.25 9.75V8.25C8.55965 8.25 8 8.80965 8 9.5H9.5ZM9.25 9.75C9.11193 9.75 9 9.63807 9 9.5H10.5C10.5 8.80965 9.94035 8.25 9.25 8.25V9.75ZM20.5 12C20.5 16.6944 16.6944 20.5 12 20.5V22C17.5228 22 22 17.5228 22 12H20.5ZM12 20.5C7.30558 20.5 3.5 16.6944 3.5 12H2C2 17.5228 6.47715 22 12 22V20.5ZM3.5 12C3.5 7.30558 7.30558 3.5 12 3.5V2C6.47715 2 2 6.47715 2 12H3.5ZM12 3.5C16.6944 3.5 20.5 7.30558 20.5 12H22C22 6.47715 17.5228 2 12 2V3.5Z" fill="black" style="fill:black;fill-opacity:1;"/>
</svg>
