<svg width="24" height="24" viewBox="0 0 24 24" fill="none" xmlns="http://www.w3.org/2000/svg">
<path d="M4 19.9999L10.19 13.8085M4 19.9999L14.9091 17.7272C15.5873 17.5859 16.1441 17.1037 16.3808 16.4527L18 11.9999M4 19.9999L6.27273 9.09082C6.41402 8.41264 6.89618 7.85588 7.54721 7.61914L12 5.99994M18 11.9999L20.0858 9.91416C20.8668 9.13311 20.8668 7.86678 20.0858 7.08573L16.9142 3.91416C16.1332 3.13311 14.8668 3.13311 14.0858 3.91416L12 5.99994M18 11.9999L12 5.99994M13.2319 12.5165C13.2319 13.483 12.4484 14.2665 11.4819 14.2665C10.5154 14.2665 9.73193 13.483 9.73193 12.5165C9.73193 11.55 10.5154 10.7665 11.4819 10.7665C12.4484 10.7665 13.2319 11.55 13.2319 12.5165Z" stroke="black" style="stroke:black;stroke-opacity:1;" stroke-width="1.5" stroke-linecap="round" stroke-linejoin="round"/>
</svg>
