<svg width="24" height="24" viewBox="0 0 24 24" fill="none" xmlns="http://www.w3.org/2000/svg">
<path d="M16.0017 8.50354L13.5007 11.0046M18.2987 12.5052H17.3983M5.69242 12.5052H6.5928M11.996 6.20259V7.10296M7.53819 8.04835L7.98838 8.49854M14.0009 12.5052C14.0009 13.6102 13.1051 14.506 12.0001 14.506C10.895 14.506 9.99922 13.6102 9.99922 12.5052C9.99922 11.4002 10.895 10.5044 12.0001 10.5044C13.1051 10.5044 14.0009 11.4002 14.0009 12.5052ZM11.7189 3.49646C6.88623 3.69861 3.05533 7.64464 2.99626 12.4812C2.9874 15.3828 4.38061 18.1099 6.73686 19.8032C7.40386 20.2692 8.20024 20.5141 9.01381 20.5035H14.9943C15.7894 20.5154 16.5683 20.2787 17.2222 19.8263C20.4585 17.527 21.8057 13.3786 20.5378 9.61664C19.27 5.85464 15.6867 3.36791 11.7189 3.49646Z" stroke="black" style="stroke:black;stroke-opacity:1;" stroke-width="1.5" stroke-linecap="round" stroke-linejoin="round"/>
</svg>
