<svg width="24" height="24" viewBox="0 0 24 24" fill="none" xmlns="http://www.w3.org/2000/svg">
<path d="M2.73171 12.6952H7.76191C8.33761 12.6952 8.88064 12.9626 9.23151 13.4191L9.54349 13.8249C9.89437 14.2813 10.4374 14.5488 11.0131 14.5488H12.9869C13.5626 14.5488 14.1057 14.2813 14.4565 13.8249L14.7685 13.4191C15.1193 12.9626 15.6624 12.6952 16.2381 12.6952H21.2683M21.296 12.2971L18.2167 6.28874C17.8995 5.66981 17.2625 5.28052 16.567 5.28052H7.43292C6.73744 5.28052 6.10048 5.66981 5.78328 6.28874L2.70402 12.2971C2.56993 12.5587 2.5 12.8484 2.5 13.1425V16.8659C2.5 17.8897 3.32991 18.7195 4.35366 18.7195H19.6463C20.6701 18.7195 21.5 17.8897 21.5 16.8659V13.1425C21.5 12.8484 21.43 12.5587 21.296 12.2971Z" stroke="black" style="stroke:black;stroke-opacity:1;" stroke-width="1.5" stroke-linecap="round"/>
</svg>
