<svg width="24" height="24" viewBox="0 0 24 24" fill="none" xmlns="http://www.w3.org/2000/svg">
<path d="M17 21H7C5.895 21 5 20.105 5 19V12C5 10.895 5.895 10 7 10H17C18.105 10 19 10.895 19 12V19C19 20.105 18.105 21 17 21Z" fill="black" style="fill:black;fill-opacity:1;"/>
<path d="M16 10L16 7Z" fill="black" style="fill:black;fill-opacity:1;"/>
<path d="M16 10L16 7C16 4.791 14.209 3 12 3C10.6519 3 9.46592 3.6699 8.74485 4.6935M17 21H7C5.895 21 5 20.105 5 19V12C5 10.895 5.895 10 7 10H17C18.105 10 19 10.895 19 12V19C19 20.105 18.105 21 17 21Z" stroke="black" style="stroke:black;stroke-opacity:1;" stroke-width="1.5" stroke-linecap="round" stroke-linejoin="round"/>
</svg>
