<svg width="24" height="24" viewBox="0 0 24 24" fill="none" xmlns="http://www.w3.org/2000/svg">
<path d="M15.2128 13.3799L17.7688 15.9358M9.00586 7.17236L11.5617 9.72828M6.81492 18.1265C4.39503 15.7066 4.39503 11.7832 6.81492 9.36325L10.6488 5.52935C11.3546 4.82355 12.4989 4.82355 13.2047 5.52935C13.9105 6.23515 13.9105 7.37948 13.2047 8.08528L9.37086 11.9192C8.36257 12.9275 8.36257 14.5623 9.37086 15.5705C10.3791 16.5788 12.0139 16.5788 13.0221 15.5705L16.856 11.7366C17.5619 11.0308 18.7062 11.0308 19.412 11.7366C20.1178 12.4424 20.1178 13.5868 19.412 14.2926L15.5781 18.1265C14.3681 19.3364 12.7823 19.9414 11.1965 19.9414C9.6107 19.9414 8.02487 19.3364 6.81492 18.1265Z" stroke="black" style="stroke:black;stroke-opacity:1;" stroke-width="1.5" stroke-linecap="round" stroke-linejoin="round"/>
</svg>
