<svg width="100%" height="100%" viewBox="0 0 14 14" fill="none" xmlns="http://www.w3.org/2000/svg">
  <path d="M9.13845 5.54109L7.38773 3.79036M12.3481 10.5015L11.7097 11.1399C11.0046 11.8448 9.86163 11.8448 9.15655 11.1399C8.45059 10.4366 7.30877 10.4366 6.60282 11.1399M10.235 2.69382C10.7182 3.17737 10.7182 3.96101 10.235 4.44455L4.40682 10.2727C4.25725 10.4223 4.06986 10.5284 3.86467 10.5797L1.84375 11.0851L2.34913 9.06414C2.40044 8.85896 2.50654 8.67157 2.65609 8.522L8.48485 2.69382C8.96819 2.21066 9.75165 2.21066 10.235 2.69382Z" stroke="currentColor" stroke-opacity="0.9" stroke-linecap="round" stroke-linejoin="round"/>
  <path d="M2.8108 1.44901C2.87523 1.27489 3.12151 1.27489 3.18594 1.44901L3.59667 2.55898C3.61693 2.61373 3.66009 2.65689 3.71483 2.67714L4.82481 3.08787C4.99893 3.1523 4.99893 3.39858 4.8248 3.46301L3.71483 3.87374C3.66009 3.894 3.61693 3.93716 3.59667 3.9919L3.18594 5.10187C3.12151 5.276 2.87523 5.276 2.8108 5.10187L2.40008 3.9919C2.37982 3.93716 2.33666 3.894 2.28191 3.87374L1.17194 3.46301C0.997816 3.39858 0.997817 3.1523 1.17194 3.08787L2.28191 2.67714C2.33666 2.65689 2.37982 2.61373 2.40008 2.55898L2.8108 1.44901Z" fill="currentColor" fill-opacity="0.9"/>
</svg>
