<svg width="16" height="16" viewBox="0 0 16 16" fill="none" xmlns="http://www.w3.org/2000/svg">
<path d="M3.16979 3.43825C3.09971 3.29809 2.89968 3.29809 2.82959 3.43825L2.39413 4.30919C2.37572 4.346 2.34588 4.37584 2.30907 4.39425L1.43813 4.82971C1.29797 4.8998 1.29797 5.09983 1.43813 5.16991L2.30907 5.60539C2.34588 5.62379 2.37572 5.65363 2.39413 5.69043L2.82959 6.56137C2.89968 6.70153 3.09971 6.70153 3.16979 6.56137L3.60527 5.69043C3.62367 5.65363 3.65351 5.62379 3.69031 5.60539L4.56125 5.16991C4.70142 5.09983 4.70142 4.8998 4.56125 4.82971L3.69031 4.39425C3.65351 4.37584 3.62367 4.346 3.60527 4.30919L3.16979 3.43825Z" fill="black"/>
<path d="M6.17664 1.44209C6.10399 1.29681 5.89666 1.29681 5.82401 1.44209L5.50404 2.08203C5.48497 2.12017 5.45404 2.15111 5.41589 2.17018L4.77596 2.49015C4.63067 2.56279 4.63067 2.77013 4.77596 2.84277L5.41589 3.16274C5.45404 3.18181 5.48497 3.21275 5.50404 3.25089L5.82401 3.89083C5.89666 4.03611 6.10399 4.03611 6.17664 3.89083L6.4966 3.25089C6.51568 3.21275 6.54661 3.18181 6.58476 3.16274L7.22466 2.84277C7.36999 2.77013 7.36999 2.56279 7.22466 2.49015L6.58476 2.17018C6.54661 2.15111 6.51568 2.12017 6.4966 2.08203L6.17664 1.44209Z" fill="black"/>
<path d="M12.5037 10.105C12.4337 9.96477 12.2337 9.96477 12.1636 10.105L11.7281 10.9759C11.7097 11.0127 11.6799 11.0426 11.6431 11.061L10.7721 11.4964C10.6319 11.5665 10.6319 11.7665 10.7721 11.8366L11.6431 12.272C11.6799 12.2904 11.7097 12.3203 11.7281 12.3571L12.1636 13.228C12.2337 13.3682 12.4337 13.3682 12.5037 13.228L12.9392 12.3571C12.9576 12.3203 12.9875 12.2904 13.0243 12.272L13.8952 11.8366C14.0354 11.7665 14.0354 11.5665 13.8952 11.4964L13.0243 11.061C12.9875 11.0426 12.9576 11.0127 12.9392 10.9759L12.5037 10.105Z" fill="black"/>
<path d="M12.2761 2.94259L13.0572 3.72363C13.5779 4.24433 13.5779 5.08855 13.0572 5.60925L5.55719 13.1093C5.30714 13.3593 4.96801 13.4997 4.61438 13.4997H2.5V11.3854C2.5 11.0317 2.64047 10.6926 2.89053 10.4426L10.3905 2.94259C10.9112 2.42189 11.7555 2.42189 12.2761 2.94259Z" stroke="black" stroke-width="1.25" stroke-linecap="round" stroke-linejoin="round"/>
</svg>
