<svg width="24" height="24" viewBox="0 0 24 24" fill="none" xmlns="http://www.w3.org/2000/svg">
<path d="M5.87003 5.87201C7.43903 4.30301 9.60703 3.33301 12.002 3.33301C16.791 3.33301 20.674 7.21401 20.674 12.001C20.674 12.669 20.591 13.317 20.448 13.942M19.107 12.602L20.674 14.169L22.241 12.602M18.13 18.128C16.561 19.697 14.393 20.667 11.998 20.667C7.20903 20.667 3.32603 16.786 3.32603 11.999C3.32603 11.331 3.40903 10.683 3.55203 10.058M4.89303 11.398L3.32603 9.83101L1.75903 11.398M12 16.5C12 16.5 8.50003 13.625 8.50003 11C8.50003 9.06701 10.067 7.50001 12 7.50001C13.933 7.50001 15.5 9.06701 15.5 11C15.5 13.625 12 16.5 12 16.5ZM11.999 10.85C11.861 10.85 11.749 10.962 11.75 11.1C11.75 11.238 11.862 11.35 12 11.35C12.138 11.35 12.25 11.238 12.25 11.1C12.25 10.962 12.138 10.85 11.999 10.85Z" stroke="black" style="stroke:black;stroke-opacity:1;" stroke-width="1.5" stroke-linecap="round" stroke-linejoin="round"/>
<path d="M12.1768 10.9232C12.2483 10.9947 12.2697 11.1022 12.231 11.1957C12.1923 11.2891 12.1011 11.35 12 11.35C11.8989 11.35 11.8077 11.2891 11.769 11.1957C11.7303 11.1022 11.7517 10.9947 11.8232 10.9232C11.8701 10.8763 11.9337 10.8499 12 10.8499C12.0663 10.8499 12.1299 10.8763 12.1768 10.9232" stroke="black" style="stroke:black;stroke-opacity:1;" stroke-width="1.5" stroke-linecap="round" stroke-linejoin="round"/>
</svg>
