<svg width="24" height="24" viewBox="0 0 24 24" fill="none" xmlns="http://www.w3.org/2000/svg">
<path d="M7 17L8.24198 21.3433C8.36321 21.7185 9.18611 22 10.1616 22H13.8383C14.8137 22 15.6367 21.7185 15.758 21.3433L17 17H7Z" stroke="black" style="stroke:black;stroke-opacity:1;" stroke-width="1.5" stroke-linecap="round" stroke-linejoin="round"/>
<path d="M12 10V8.78788C12 5.03904 8.96096 2 5.21212 2H4V3.21212C4 6.96096 7.03904 10 10.7879 10H12ZM12 10V17M18.7879 4.90909H20V6.36364C20 10.1125 16.961 13.1515 13.2121 13.1515H12V11.697C12 7.94813 15.039 4.90909 18.7879 4.90909Z" stroke="black" style="stroke:black;stroke-opacity:1;" stroke-width="1.5" stroke-linecap="round" stroke-linejoin="round"/>
</svg>
