<svg width="24" height="24" viewBox="0 0 24 24" fill="none" xmlns="http://www.w3.org/2000/svg">
<path d="M17 8H7M9.1875 15.5H7M9.1875 12H7M13 12.2511C13.0001 12.1184 13.0353 11.988 13.1022 11.8733C13.1691 11.7587 13.2653 11.6638 13.3808 11.5984C13.4963 11.533 13.6271 11.4995 13.7599 11.5012C13.8926 11.5028 14.0226 11.5397 14.1364 11.608L16.6357 13.1069C16.7468 13.1735 16.8388 13.2677 16.9026 13.3804C16.9664 13.4931 17 13.6205 17 13.75C17 13.8795 16.9664 14.0068 16.9026 14.1195C16.8388 14.2322 16.7468 14.3265 16.6357 14.3931L14.1364 15.892C14.0226 15.9603 13.8926 15.9972 13.7599 15.9989C13.6271 16.0005 13.4963 15.967 13.3808 15.9016C13.2652 15.8362 13.1691 15.7413 13.1022 15.6267C13.0353 15.512 13 15.3816 13 15.2488V12.2511ZM8 3H16C18.7614 3 21 5.23858 21 8V16C21 18.7614 18.7614 21 16 21H8C5.23858 21 3 18.7614 3 16V8C3 5.23858 5.23858 3 8 3Z" stroke="black" style="stroke:black;stroke-opacity:1;" stroke-width="1.5" stroke-linecap="round" stroke-linejoin="round"/>
</svg>
