<svg width="24" height="24" viewBox="0 0 24 24" fill="none" xmlns="http://www.w3.org/2000/svg">
<path d="M16.5 8.25H7.5M9.75 15.75H7.75M9.75 12H7.75M22 12C22 17.5228 17.5228 22 12 22C6.47715 22 2 17.5228 2 12C2 6.47715 6.47715 2 12 2C17.5228 2 22 6.47715 22 12ZM13 12.3761C13 12.2434 13.0352 12.1131 13.102 11.9984C13.1689 11.8838 13.2649 11.7889 13.3804 11.7235C13.4959 11.6581 13.6266 11.6245 13.7593 11.6262C13.892 11.6278 14.0219 11.6646 14.1357 11.7329L16.6357 13.2318C16.7468 13.2984 16.8387 13.3926 16.9026 13.5054C16.9664 13.6181 17 13.7454 17 13.875C17 14.0045 16.9664 14.1319 16.9026 14.2446C16.8387 14.3573 16.7468 14.4516 16.6357 14.5182L14.1357 16.0171C14.0219 16.0853 13.892 16.1221 13.7593 16.1238C13.6266 16.1254 13.4959 16.0919 13.3804 16.0265C13.2649 15.9611 13.1689 15.8662 13.102 15.7515C13.0352 15.6369 13 15.5065 13 15.3738V12.3761Z" stroke="black" style="stroke:black;stroke-opacity:1;" stroke-width="1.5" stroke-linecap="round" stroke-linejoin="round"/>
</svg>
