<svg width="24" height="24" viewBox="0 0 24 24" fill="none" xmlns="http://www.w3.org/2000/svg">
<path d="M21.0028 7.27503V10.4964H21.0038C20.5371 10.4022 20.0538 10.4336 19.6032 10.5874C18.7658 10.8737 18.1305 11.5647 17.9155 12.4232C17.7133 13.2143 17.8877 14.0544 18.3882 14.6996C18.8887 15.3448 19.659 15.7227 20.4756 15.7235C20.6529 15.7233 20.8299 15.7055 21.0038 15.6705V18.8919C21.0038 19.452 20.7813 19.9892 20.3853 20.3852C19.9892 20.7813 19.452 21.0038 18.8919 21.0037H15.6706C15.7647 20.5371 15.7333 20.0547 15.5795 19.6042C15.2932 18.7668 14.6022 18.1315 13.7438 17.9165C12.9527 17.7142 12.1125 17.8887 11.4673 18.3892C10.8221 18.8896 10.4442 19.66 10.4434 20.4765C10.4437 20.6539 10.4614 20.8308 10.4964 21.0047L7.27606 21.0037C6.11001 21.004 5.16452 20.0589 5.16418 18.8929V15.6715C4.99027 15.7065 4.81335 15.7243 4.63596 15.7245C3.81943 15.7237 3.04906 15.3458 2.5486 14.7006C2.04814 14.0554 1.87368 13.2153 2.0759 12.4242C2.29092 11.5657 2.92623 10.8747 3.7636 10.5884C4.21417 10.4346 4.69749 10.4032 5.16418 10.4974H5.16318V7.27603C5.16314 6.71591 5.38563 6.17872 5.78169 5.78266C6.17775 5.3866 6.71494 5.16411 7.27506 5.16415H10.4964C10.4614 4.99024 10.4437 4.81332 10.4434 4.63593C10.4442 3.8194 10.8221 3.04903 11.4673 2.54857C12.1125 2.04811 12.9527 1.87365 13.7438 2.07586C14.6019 2.29151 15.2926 2.92658 15.5795 3.76357C15.7333 4.21413 15.7647 4.69746 15.6706 5.16415H18.8919C19.452 5.16411 19.9892 5.3866 20.3853 5.78266C20.7813 6.17872 21.0038 6.71591 21.0038 7.27603" stroke="black" style="stroke:black;stroke-opacity:1;" stroke-width="1.5" stroke-linecap="round" stroke-linejoin="round"/>
</svg>
