<svg width="24" height="24" viewBox="0 0 24 24" fill="none" xmlns="http://www.w3.org/2000/svg">
<path d="M13.65 9.75H11.65C11.5174 9.75 11.3902 9.80268 11.2964 9.89645C11.2027 9.99021 11.15 10.1174 11.15 10.25V13.75C11.15 13.8826 11.2027 14.0098 11.2964 14.1036C11.3902 14.1973 11.5174 14.25 11.65 14.25H13.65M11.152 12H13.202M18.5 9.75H17C16.7348 9.75 16.4804 9.85536 16.2929 10.0429C16.1054 10.2304 16 10.4848 16 10.75V13.25C16 13.5152 16.1054 13.7696 16.2929 13.9571C16.4804 14.1446 16.7348 14.25 17 14.25H18.5M7.16599 12.2535L8.49999 14.2499M5.5 9.75H7.25C7.58152 9.75 7.89946 9.8817 8.13388 10.1161C8.3683 10.3505 8.5 10.6685 8.5 11C8.5 11.3315 8.3683 11.6495 8.13388 11.8839C7.89946 12.1183 7.58152 12.25 7.25 12.25H5.5V9.75ZM5.5 9.75V14.25M22 12C22 17.5228 17.5228 22 12 22C6.47715 22 2 17.5228 2 12C2 6.47715 6.47715 2 12 2C17.5228 2 22 6.47715 22 12Z" stroke="black" style="stroke:black;stroke-opacity:1;" stroke-width="1.5" stroke-linecap="round" stroke-linejoin="round"/>
</svg>
