<svg width="24" height="24" viewBox="0 0 24 24" fill="none" xmlns="http://www.w3.org/2000/svg">
<path d="M5.77843 13.943L6.21241 14.5547L6.2126 14.5545L5.77843 13.943ZM3.10743 15.838L3.54135 16.4497L3.54141 16.4497L3.10743 15.838ZM2.72043 17.02L2.00876 17.2567L2.00885 17.257L2.72043 17.02ZM3.72443 20.035L4.43661 19.7998L4.43601 19.798L3.72443 20.035ZM9.04143 20.035L8.32985 19.798L8.32975 19.7983L9.04143 20.035ZM10.0454 17.02L10.757 17.257L10.7571 17.2567L10.0454 17.02ZM9.65843 15.838L9.22445 16.4497L9.22451 16.4497L9.65843 15.838ZM6.98743 13.943L7.42141 13.3313L7.4208 13.3309L6.98743 13.943ZM10.9724 3.82L10.3364 3.4225L10.3363 3.42256L10.9724 3.82ZM8.42537 7.896L9.06114 8.29385L9.0614 8.29344L8.42537 7.896ZM15.5744 7.896L14.9383 8.29333L14.9386 8.29385L15.5744 7.896ZM13.0284 3.82L13.6645 3.42267L13.6644 3.4225L13.0284 3.82ZM5.34445 13.3313L2.67345 15.2263L3.54141 16.4497L6.21241 14.5547L5.34445 13.3313ZM2.67351 15.2263C2.02931 15.6832 1.75965 16.5076 2.00876 17.2567L3.43211 16.7833C3.39121 16.6604 3.43555 16.5248 3.54135 16.4497L2.67351 15.2263ZM2.00885 17.257L3.01285 20.272L4.43601 19.798L3.43201 16.783L2.00885 17.257ZM3.01225 20.2702C3.25492 21.0051 3.94148 21.5 4.71443 21.5V20C4.58739 20 4.47594 19.9189 4.43661 19.7998L3.01225 20.2702ZM4.71443 21.5H8.05043V20H4.71443V21.5ZM8.05043 21.5C8.82368 21.5 9.50925 21.005 9.75311 20.2717L8.32975 19.7983C8.28961 19.919 8.17718 20 8.05043 20V21.5ZM9.75301 20.272L10.757 17.257L9.33385 16.783L8.32985 19.798L9.75301 20.272ZM10.7571 17.2567C11.0062 16.5076 10.7366 15.6832 10.0924 15.2263L9.22451 16.4497C9.33031 16.5248 9.37465 16.6604 9.33376 16.7833L10.7571 17.2567ZM10.0924 15.2263L7.42141 13.3313L6.55345 14.5547L9.22445 16.4497L10.0924 15.2263ZM7.4208 13.3309C6.79849 12.8903 5.96663 12.8896 5.34426 13.3314L6.2126 14.5545C6.31423 14.4824 6.45037 14.4817 6.55406 14.5551L7.4208 13.3309ZM17.5724 13C15.2252 13 13.3224 14.9028 13.3224 17.25H14.8224C14.8224 15.7312 16.0537 14.5 17.5724 14.5V13ZM13.3224 17.25C13.3224 19.5972 15.2252 21.5 17.5724 21.5V20C16.0537 20 14.8224 18.7688 14.8224 17.25H13.3224ZM17.5724 21.5C19.9197 21.5 21.8224 19.5972 21.8224 17.25H20.3224C20.3224 18.7688 19.0912 20 17.5724 20V21.5ZM21.8224 17.25C21.8224 14.9028 19.9197 13 17.5724 13V14.5C19.0912 14.5 20.3224 15.7312 20.3224 17.25H21.8224ZM10.3363 3.42256L7.78933 7.49856L9.0614 8.29344L11.6084 4.21744L10.3363 3.42256ZM7.78959 7.49815C6.97166 8.80521 7.91275 10.5 9.45237 10.5V9C9.08999 9 8.86907 8.60079 9.06114 8.29385L7.78959 7.49815ZM9.45237 10.5H14.5474V9H9.45237V10.5ZM14.5474 10.5C16.0885 10.5 17.0278 8.80475 16.2101 7.49815L14.9386 8.29385C15.1309 8.60125 14.9102 9 14.5474 9V10.5ZM16.2105 7.49867L13.6645 3.42267L12.3923 4.21733L14.9383 8.29333L16.2105 7.49867ZM13.6644 3.4225C12.8956 2.1925 11.1051 2.1925 10.3364 3.4225L11.6084 4.2175C11.7896 3.9275 12.2111 3.9275 12.3924 4.2175L13.6644 3.4225Z" fill="black" style="fill:black;fill-opacity:1;"/>
</svg>
