<svg width="24" height="24" viewBox="0 0 24 24" fill="none" xmlns="http://www.w3.org/2000/svg">
<path d="M13.5914 2.99755C12.9515 1.66748 11.0514 1.66748 10.4115 2.99755L8.23839 7.51389C8.20091 7.59179 8.12509 7.64774 8.03497 7.65952L3.0366 8.31296C1.56994 8.5047 0.970255 10.3118 2.05507 11.3331L5.70827 14.7724C5.7725 14.8329 5.80036 14.9201 5.78468 15.0041L4.86708 19.9186C4.594 21.3812 6.14366 22.4835 7.43862 21.7865L11.8745 19.3989C11.9535 19.3563 12.0494 19.3563 12.1284 19.3989L16.5642 21.7865C17.8592 22.4835 19.4089 21.3812 19.1358 19.9186L18.2182 15.0041C18.2025 14.9201 18.2304 14.8329 18.2946 14.7724L21.9478 11.3331C23.0326 10.3118 22.4329 8.5047 20.9663 8.31296L15.9679 7.65952C15.8778 7.64774 15.802 7.59179 15.7645 7.51389L13.5914 2.99755Z" fill="black" style="fill:black;fill-opacity:1;"/>
</svg>
