<svg width="18" height="18" viewBox="0 0 18 18" fill="none" xmlns="http://www.w3.org/2000/svg">
<path d="M11.3214 3H6.6786C6.13671 2.99999 5.69963 2.99999 5.34569 3.02891C4.98127 3.05869 4.66117 3.12159 4.36503 3.27249C3.89462 3.51217 3.51217 3.89462 3.27249 4.36503C3.12159 4.66117 3.05869 4.98127 3.02891 5.34569C2.99999 5.69963 2.99999 6.1367 3 6.67859V11.3214C2.99999 11.8633 2.99999 12.3004 3.02891 12.6543C3.05869 13.0187 3.12159 13.3388 3.27249 13.635C3.51217 14.1054 3.89462 14.4879 4.36503 14.7275C4.66117 14.8784 4.98127 14.9413 5.34569 14.9711C5.69963 15 6.1367 15 6.67859 15H11.3214C11.8633 15 12.3004 15 12.6543 14.9711C13.0187 14.9413 13.3388 14.8784 13.635 14.7275C14.1054 14.4879 14.4879 14.1054 14.7275 13.635C14.8784 13.3388 14.9413 13.0187 14.9711 12.6543C15 12.3004 15 11.8633 15 11.3214V6.67859C15 6.1367 15 5.69963 14.9711 5.34569C14.9413 4.98127 14.8784 4.66117 14.7275 4.36503C14.4879 3.89462 14.1054 3.51217 13.635 3.27249C13.3388 3.12159 13.0187 3.05869 12.6543 3.02891C12.3004 2.99999 11.8633 2.99999 11.3214 3Z" fill="white" fill-opacity="0.8"/>
</svg>
