<svg width="24" height="24" viewBox="0 0 24 24" fill="none" xmlns="http://www.w3.org/2000/svg">
<path d="M7.5 16C7.69423 15.5544 8.01424 15.1751 8.42081 14.9087C8.82738 14.6423 9.30285 14.5002 9.78894 14.5H14.2111C14.6972 14.5002 15.1726 14.6423 15.5792 14.9087C15.9858 15.1751 16.3058 15.5544 16.5 16M21 12C21 16.9706 16.9706 21 12 21C7.02944 21 3 16.9706 3 12C3 7.02944 7.02944 3 12 3C16.9706 3 21 7.02944 21 12ZM14.5 9.49999C14.5 10.8807 13.3807 12 12 12C10.6193 12 9.5 10.8807 9.5 9.49999C9.5 8.11928 10.6193 6.99999 12 6.99999C13.3807 6.99999 14.5 8.11928 14.5 9.49999Z" stroke="black" style="stroke:black;stroke-opacity:1;" stroke-width="1.5" stroke-linecap="round" stroke-linejoin="round"/>
</svg>
