<svg width="24" height="24" viewBox="0 0 24 24" fill="none" xmlns="http://www.w3.org/2000/svg">
<path d="M19.7539 14.7435L13.7462 20.7565M10 15H7C5.93913 15 4.92172 15.4214 4.17157 16.1716C3.42143 16.9217 3 17.9391 3 19V20M21 17.75C21 20.0972 19.0972 22 16.75 22C14.4028 22 12.5 20.0972 12.5 17.75C12.5 15.4028 14.4028 13.5 16.75 13.5C19.0972 13.5 21 15.4028 21 17.75ZM15 7C15 9.20914 13.2091 11 11 11C8.79086 11 7 9.20914 7 7C7 4.79086 8.79086 3 11 3C13.2091 3 15 4.79086 15 7Z" stroke="black" style="stroke:black;stroke-opacity:1;" stroke-width="1.5" stroke-linecap="round" stroke-linejoin="round"/>
</svg>
