<svg width="24" height="24" viewBox="0 0 24 24" fill="none" xmlns="http://www.w3.org/2000/svg">
<path d="M10 16.336L12.0089 15.0976C12.1074 15.0369 12.2203 15.0036 12.336 15.0011C12.4516 14.9986 12.5658 15.027 12.6669 15.0834C12.7679 15.1398 12.852 15.2222 12.9106 15.3219C12.9691 15.4217 13 15.5353 13 15.651V19.349C13 19.4646 12.9691 19.5782 12.9106 19.678C12.852 19.7778 12.7679 19.8601 12.6669 19.9165C12.5659 19.9729 12.4516 20.0013 12.336 19.9988C12.2203 19.9963 12.1074 19.963 12.0089 19.9023L10 18.664M16 19H19C19.5304 19 20.0391 18.7893 20.4142 18.4142C20.7893 18.0391 21 17.5304 21 17V7.94C21 7.40957 20.7893 6.90086 20.4142 6.52579C20.0391 6.15071 19.5304 5.94 19 5.94H12.5291C12.3661 5.94 12.2055 5.90014 12.0614 5.82389C11.9173 5.74764 11.7941 5.63732 11.7024 5.50253L10.2974 3.43747C10.2056 3.30267 10.0824 3.19235 9.93826 3.1161C9.79415 3.03985 9.63358 2.99999 9.47054 3H5C4.46957 3 3.96086 3.21071 3.58579 3.58579C3.21071 3.96086 3 4.46957 3 5V11M4.61538 14H8.38462C9.27677 14 10 14.7232 10 15.6154V19.3846C10 20.2768 9.27677 21 8.38462 21H4.61538C3.72323 21 3 20.2768 3 19.3846V15.6154C3 14.7232 3.72323 14 4.61538 14Z" stroke="black" style="stroke:black;stroke-opacity:1;" stroke-width="1.5" stroke-linecap="round" stroke-linejoin="round"/>
</svg>
