<svg width="24" height="24" viewBox="0 0 24 24" fill="none" xmlns="http://www.w3.org/2000/svg">
<path d="M4.78201 9V8C4.78201 6.895 5.67701 6 6.78201 6H17.217C18.322 6 19.217 6.895 19.217 8V9M6.51599 6V5C6.51599 3.895 7.41099 3 8.51599 3H15.485C16.59 3 17.485 3.895 17.485 5V6M18.99 21H5.01C3.9 21 3 20.105 3 19V11C3 9.895 3.9 9 5.01 9H18.99C20.1 9 21 9.895 21 11V19C21 20.105 20.099 21 18.99 21ZM11.285 13.14L13.905 14.69C14.236 14.886 14.236 15.366 13.905 15.561L11.285 17.111C10.948 17.311 10.521 17.067 10.521 16.675V13.576C10.521 13.184 10.948 12.94 11.285 13.14Z" stroke="black" style="stroke:black;stroke-opacity:1;" stroke-width="1.5" stroke-linecap="round" stroke-linejoin="round"/>
</svg>
