<svg width="24" height="24" viewBox="0 0 24 24" fill="none" xmlns="http://www.w3.org/2000/svg">
<path fill-rule="evenodd" clip-rule="evenodd" d="M13.368 19.9642C13.2831 19.9695 13.1975 19.9722 13.1113 19.9722H5.33301C3.07807 19.972 1.25012 18.1441 1.25 15.8892V8.11084C1.25001 8.02463 1.25269 7.93904 1.25796 7.85415L2.75 9.34619V15.8892C2.75012 17.3157 3.90649 18.472 5.33301 18.4722H11.876L13.368 19.9642ZM15.6943 13.0981V8.11084C15.6942 6.68433 14.5379 5.52795 13.1113 5.52783H8.12403L6.62403 4.02783H13.1113C15.3663 4.02795 17.1942 5.8559 17.1943 8.11084V8.20361L19.9121 6.52881L20.0195 6.46729C20.2749 6.33238 20.5588 6.25871 20.8486 6.25244C21.1797 6.24528 21.5067 6.3264 21.7959 6.48779C22.0851 6.64923 22.3265 6.88483 22.4941 7.17041C22.6618 7.45603 22.75 7.78161 22.75 8.11279V15.8872L22.7461 16.0112C22.7269 16.2992 22.6408 16.5797 22.4941 16.8296C22.3265 17.1152 22.0851 17.3508 21.7959 17.5122C21.5067 17.6736 21.1797 17.7547 20.8486 17.7476C20.6327 17.7429 20.4201 17.7008 20.2201 17.6239L15.6943 13.0981ZM21.2002 7.93018C21.2164 7.95784 21.229 7.98738 21.2373 8.01807L21.25 8.11279V15.8872L21.2373 15.9819C21.229 16.0126 21.2164 16.0421 21.2002 16.0698C21.1677 16.1252 21.1206 16.1713 21.0645 16.2026C21.0084 16.2338 20.945 16.2499 20.8809 16.2485C20.849 16.2478 20.8174 16.2428 20.7871 16.2339L20.6992 16.1948L17.1943 14.0337V9.96533L20.6992 7.80518L20.7871 7.76709C20.8175 7.75814 20.8489 7.75217 20.8809 7.75146C20.9449 7.75008 21.0085 7.76621 21.0645 7.79736C21.1206 7.82869 21.1677 7.87476 21.2002 7.93018Z" fill="black" style="fill:black;fill-opacity:1;"/>
<path d="M1 3L18.6777 20.6777" stroke="black" stroke-opacity="0.9" style="stroke:black;stroke-opacity:0.9;" stroke-width="1.5" stroke-linecap="round"/>
</svg>
