<svg width="64" height="64" viewBox="0 0 64 64" fill="none" xmlns="http://www.w3.org/2000/svg">
  <rect width="64" height="64" rx="8" fill="#1E1E1E"/>
  <path d="M25 52C28.3137 52 31 49.3137 31 46V40H25C21.6863 40 19 42.6863 19 46C19 49.3137 21.6863 52 25 52Z" fill="#0ACF83"/>
  <path d="M19 32C19 28.6863 21.6863 26 25 26H31V38H25C21.6863 38 19 35.3137 19 32Z" fill="#A259FF"/>
  <path d="M19 18C19 14.6863 21.6863 12 25 12H31V24H25C21.6863 24 19 21.3137 19 18Z" fill="#F24E1E"/>
  <path d="M31 12H37C40.3137 12 43 14.6863 43 18C43 21.3137 40.3137 24 37 24H31V12Z" fill="#FF7262"/>
  <path d="M43 32C43 35.3137 40.3137 38 37 38C33.6863 38 31 35.3137 31 32C31 28.6863 33.6863 26 37 26C40.3137 26 43 28.6863 43 32Z" fill="#1ABCFE"/>
</svg>
